<svg xmlns="http://www.w3.org/2000/svg" width="88" height="79" viewBox="0 0 88 79">
    <g fill="#4A90E2" fill-rule="nonzero" opacity=".201">
        <path d="M43.5 18a1.5 1.5 0 1 0 .001 3.001A1.5 1.5 0 0 0 43.5 18zM14.5 48a1.5 1.5 0 1 0-.001-3.001A1.5 1.5 0 0 0 14.5 48z"/>
        <path d="M57.75 0C42.277 0 29.577 10.66 28.594 24.087 13.858 24.826 0 35.443 0 49.804c0 6.002 2.377 11.817 6.703 16.424a10.439 10.439 0 0 1-2.762 9.84A1.717 1.717 0 0 0 5.156 79c4.902 0 9.626-1.92 13.136-5.305 3.42 1.164 7.88 1.87 11.958 1.87 15.471 0 28.17-10.657 29.155-24.081 3.599-.16 7.342-.824 10.303-1.833a18.967 18.967 0 0 0 13.136 5.306 1.719 1.719 0 0 0 1.215-2.932 10.439 10.439 0 0 1-2.762-9.84C85.623 37.577 88 31.762 88 25.76 88 10.839 73.074 0 57.75 0zM30.02 71.994c-4.088 0-8.746-.802-11.867-2.042a1.733 1.733 0 0 0-1.919.44A15.63 15.63 0 0 1 8.461 75a13.984 13.984 0 0 0 1.056-10.3 1.727 1.727 0 0 0-.423-.731C5.164 59.925 3 54.785 3 49.497 3 37.302 15.373 27 30.02 27 43.85 27 56 36.61 56 49.497c0 12.405-11.655 22.497-25.98 22.497zm48.878-32.025c-.2.205-.346.456-.424.73A13.967 13.967 0 0 0 79.53 51a15.652 15.652 0 0 1-7.784-4.609 1.738 1.738 0 0 0-1.92-.44c-2.709 1.076-6.572 1.82-10.219 2-.507-6.545-3.778-12.695-9.372-17.262H72.86c.958 0 1.735-.775 1.735-1.731 0-.956-.777-1.73-1.735-1.73H44.908c-3.937-2-8.358-3.166-12.908-3.41C32.997 12.193 44.252 3 57.943 3 72.61 3 85 13.302 85 25.497c0 5.288-2.167 10.428-6.102 14.472z"/>
        <path d="M43.22 45H20.78c-.983 0-1.78.671-1.78 1.5s.797 1.5 1.78 1.5h22.44c.983 0 1.78-.671 1.78-1.5s-.797-1.5-1.78-1.5zM43.28 57H14.72c-.95 0-1.72.671-1.72 1.5s.77 1.5 1.72 1.5h28.56c.95 0 1.72-.671 1.72-1.5s-.77-1.5-1.72-1.5zM72.22 18H49.78c-.983 0-1.78.671-1.78 1.5s.797 1.5 1.78 1.5h22.44c.983 0 1.78-.671 1.78-1.5s-.797-1.5-1.78-1.5z"/>
    </g>
</svg>
