<svg xmlns="http://www.w3.org/2000/svg" width="80" height="80" viewBox="0 0 80 80">
    <g fill="#4A90E2" fill-opacity=".2" fill-rule="nonzero">
        <path d="M64.443 23.242c.86 0 1.557-.7 1.557-1.562V4.688C66 2.103 63.905 0 61.33 0H4.67C2.095 0 0 2.103 0 4.688v70.624C0 77.897 2.095 80 4.67 80h56.66c2.575 0 4.67-2.103 4.67-4.688v-11.51a1.56 1.56 0 0 0-1.557-1.563c-.86 0-1.556.7-1.556 1.562v11.511c0 .862-.699 1.563-1.557 1.563H4.67c-.858 0-1.557-.7-1.557-1.563V4.689c0-.862.699-1.563 1.557-1.563h56.66c.858 0 1.557.7 1.557 1.563V21.68a1.56 1.56 0 0 0 1.556 1.562z"/>
        <path d="M32.5 8C24.505 8 18 14.505 18 22.5a14.46 14.46 0 0 0 4.552 10.54c.053.055.108.108.17.157A14.444 14.444 0 0 0 32.5 37c3.764 0 7.198-1.442 9.778-3.803.061-.049.117-.102.17-.158A14.46 14.46 0 0 0 47 22.5C47 14.505 40.495 8 32.5 8zm0 25.848c-2.574 0-4.949-.862-6.855-2.312a7.83 7.83 0 0 1 6.855-3.992 7.83 7.83 0 0 1 6.855 3.992 11.287 11.287 0 0 1-6.855 2.312zM29.978 21.87v-1.025a2.525 2.525 0 0 1 2.522-2.522 2.525 2.525 0 0 1 2.522 2.522v1.025A2.525 2.525 0 0 1 32.5 24.39a2.525 2.525 0 0 1-2.522-2.521zm11.654 7.357a10.934 10.934 0 0 0-4.644-3.892 5.644 5.644 0 0 0 1.186-3.465v-1.025a5.68 5.68 0 0 0-5.674-5.674 5.68 5.68 0 0 0-5.674 5.674v1.025c0 1.304.443 2.505 1.186 3.465a10.934 10.934 0 0 0-4.644 3.892 11.286 11.286 0 0 1-2.216-6.727c0-6.257 5.09-11.348 11.348-11.348 6.257 0 11.348 5.09 11.348 11.348 0 2.517-.825 4.843-2.216 6.727zM41.514 69h-8.028c-.82 0-1.486.672-1.486 1.5s.666 1.5 1.486 1.5h8.028c.82 0 1.486-.672 1.486-1.5s-.666-1.5-1.486-1.5zM41.457 60H19.543c-.852 0-1.543.672-1.543 1.5s.691 1.5 1.543 1.5h21.914c.852 0 1.543-.672 1.543-1.5s-.691-1.5-1.543-1.5zM41.457 50H19.543c-.852 0-1.543.672-1.543 1.5s.691 1.5 1.543 1.5h21.914c.852 0 1.543-.672 1.543-1.5s-.691-1.5-1.543-1.5zM14.56 42.44A1.51 1.51 0 0 0 13.5 42c-.395 0-.782.16-1.06.44-.28.279-.44.666-.44 1.06 0 .395.16.782.44 1.06.28.28.665.44 1.06.44s.78-.16 1.06-.44c.28-.279.44-.666.44-1.06 0-.395-.16-.782-.44-1.06zM14.56 50.44A1.513 1.513 0 0 0 13.5 50c-.395 0-.78.16-1.06.44-.28.279-.44.666-.44 1.06 0 .395.16.782.44 1.06.28.28.665.44 1.06.44s.78-.16 1.06-.44c.28-.279.44-.666.44-1.06 0-.395-.16-.782-.44-1.06zM14.56 60.44A1.513 1.513 0 0 0 13.5 60c-.395 0-.78.16-1.06.44-.28.279-.44.666-.44 1.06 0 .395.16.782.44 1.06.278.28.665.44 1.06.44s.782-.16 1.06-.44c.28-.279.44-.666.44-1.06 0-.395-.16-.782-.44-1.06zM41.457 42H19.543c-.852 0-1.543.672-1.543 1.5s.691 1.5 1.543 1.5h21.914c.852 0 1.543-.672 1.543-1.5s-.691-1.5-1.543-1.5zM76.77 19.898a6.243 6.243 0 0 0-4.906-.668c-1.668.462-3.062 1.567-3.925 3.112l-19.37 34.657c-.105.19-.173.4-.196.618L47.01 70.233c-.068.628.23 1.238.76 1.554a1.5 1.5 0 0 0 1.682-.097l9.894-7.528c.171-.13.314-.295.42-.485l19.37-34.657c1.781-3.189.72-7.281-2.367-9.122zM50.46 66.974l.711-6.587 4.455 2.656-5.167 3.931zm7.41-6.264l-5.865-3.498L67.548 29.4l5.865 3.498L57.87 60.71zm18.6-33.28l-1.518 2.715-5.865-3.498 1.517-2.715a3.38 3.38 0 0 1 2.056-1.63 3.27 3.27 0 0 1 2.57.35 3.462 3.462 0 0 1 1.577 2.124 3.576 3.576 0 0 1-.338 2.654z"/>
    </g>
</svg>
