<svg xmlns="http://www.w3.org/2000/svg" width="89" height="48" viewBox="0 0 89 48">
    <path fill="#4A90E2" fill-opacity=".2" fill-rule="nonzero" d="M7.449 0h52.818C61.224 0 62 .786 62 1.755c0 .97-.776 1.755-1.733 1.755H21.132v2.681c0 .97-.775 1.755-1.732 1.755a1.744 1.744 0 0 1-1.732-1.755v-2.68H7.448c-1.093 0-2.09.454-2.812 1.186a4.063 4.063 0 0 0-.92 1.446A5.82 5.82 0 0 1 5.85 7.52a5.922 5.922 0 0 1 1.706 4.172c0 1.63-.653 3.105-1.706 4.173a5.814 5.814 0 0 1-2.386 1.463v1.035a5.814 5.814 0 0 1 2.386 1.463A5.925 5.925 0 0 1 7.557 24c0 1.63-.653 3.105-1.706 4.173a5.808 5.808 0 0 1-2.386 1.463v1.036a5.807 5.807 0 0 1 2.386 1.463 5.923 5.923 0 0 1 1.706 4.173c0 1.629-.653 3.104-1.706 4.172a5.829 5.829 0 0 1-2.136 1.378 4.07 4.07 0 0 0 .921 1.445A3.944 3.944 0 0 0 7.45 44.49h10.219v-2.68c0-.97.775-1.756 1.732-1.756s1.732.786 1.732 1.755v2.681h10.19c.958 0 1.734.786 1.734 1.755 0 .97-.776 1.755-1.733 1.755H7.449a7.377 7.377 0 0 1-5.262-2.215A7.575 7.575 0 0 1 0 40.454c0-.97.775-1.755 1.732-1.755.652 0 1.242-.268 1.669-.7a2.4 2.4 0 0 0 .691-1.691 2.4 2.4 0 0 0-.691-1.691 2.338 2.338 0 0 0-1.669-.7A1.743 1.743 0 0 1 0 32.161v-4.015c0-.97.775-1.755 1.732-1.755a2.34 2.34 0 0 0 1.669-.7 2.4 2.4 0 0 0 .691-1.691 2.4 2.4 0 0 0-.691-1.691 2.335 2.335 0 0 0-1.669-.7A1.745 1.745 0 0 1 0 19.854V15.84c0-.97.775-1.755 1.732-1.755.652 0 1.242-.267 1.669-.7a2.4 2.4 0 0 0 .691-1.69c0-.662-.264-1.259-.691-1.692a2.337 2.337 0 0 0-1.669-.7A1.744 1.744 0 0 1 0 7.547c0-2.077.838-3.964 2.187-5.33A7.376 7.376 0 0 1 7.449 0zm31.05 44c-.827 0-1.499.896-1.499 2s.672 2 1.5 2 1.5-.896 1.5-2-.672-2-1.5-2zm7.22 4h35.893c2.034 0 3.881-.849 5.22-2.216A7.607 7.607 0 0 0 89 40.454V7.546c0-2.077-.83-3.965-2.169-5.331C85.493.849 83.646 0 81.612 0h-7.185c-.95 0-1.718.785-1.718 1.755 0 .97.769 1.755 1.718 1.755h7.185c1.085 0 2.073.455 2.79 1.187a4.07 4.07 0 0 1 1.162 2.85v32.906a4.07 4.07 0 0 1-1.162 2.85 3.899 3.899 0 0 1-2.79 1.187H45.72c-.95 0-1.719.786-1.719 1.754 0 .97.77 1.756 1.719 1.756zM67.5 0c.828 0 1.5.896 1.5 2s-.672 2-1.5 2S66 3.104 66 2c0-1.105.672-2 1.5-2zm-7.655 10.787L43.283 36.296c-.522.805-.301 1.888.492 2.417.793.53 1.859.305 2.38-.5l16.562-25.509a1.762 1.762 0 0 0-.492-2.417 1.703 1.703 0 0 0-2.38.5zM61 26c1.657 0 3.157.727 4.243 1.904C66.329 29.08 67 30.705 67 32.5s-.671 3.42-1.757 4.596C64.157 38.272 62.657 39 61 39c-1.656 0-3.157-.727-4.242-1.904C55.672 35.92 55 34.295 55 32.5s.672-3.42 1.758-4.596C57.843 26.727 59.344 26 61 26zm2.121 3.878A2.99 2.99 0 0 0 61 29c-.829 0-1.58.336-2.122.878A2.991 2.991 0 0 0 58 32c0 .829.336 1.578.878 2.121A2.992 2.992 0 0 0 61 35a2.99 2.99 0 0 0 2.121-.879A2.99 2.99 0 0 0 64 32c0-.829-.336-1.58-.879-2.122zM45 9c1.657 0 3.157.727 4.243 1.904C50.329 12.08 51 13.705 51 15.5s-.671 3.42-1.757 4.596C48.157 21.273 46.657 22 45 22c-1.656 0-3.157-.727-4.242-1.904C39.672 18.92 39 17.295 39 15.5s.672-3.42 1.758-4.596C41.843 9.727 43.344 9 45 9zm2.121 4.879A2.988 2.988 0 0 0 45 13c-.829 0-1.58.336-2.122.879a2.99 2.99 0 0 0-.878 2.12c0 .83.336 1.58.878 2.123A2.993 2.993 0 0 0 45 19a2.99 2.99 0 0 0 2.121-.878A2.99 2.99 0 0 0 48 16c0-.829-.336-1.578-.879-2.121zM18 31.767v4.466c0 .976.671 1.767 1.5 1.767s1.5-.791 1.5-1.767v-4.466C21 30.79 20.329 30 19.5 30s-1.5.79-1.5 1.767zm0-10v4.466c0 .976.671 1.767 1.5 1.767s1.5-.791 1.5-1.767v-4.466C21 20.79 20.329 20 19.5 20s-1.5.791-1.5 1.767zm0-10v4.466c0 .976.671 1.767 1.5 1.767s1.5-.791 1.5-1.767v-4.466C21 10.79 20.329 10 19.5 10s-1.5.791-1.5 1.767z"/>
</svg>
