<svg xmlns="http://www.w3.org/2000/svg" width="80" height="80" viewBox="0 0 80 80">
    <g fill="#4A90E2" fill-opacity=".2" fill-rule="nonzero">
        <path d="M72.5 60a1.5 1.5 0 1 0-.001-3.001A1.5 1.5 0 0 0 72.5 60zM72.5 54c.829 0 1.5-.716 1.5-1.6V39.6c0-.884-.671-1.6-1.5-1.6s-1.5.716-1.5 1.6v12.8c0 .884.671 1.6 1.5 1.6z"/>
        <path d="M1.563 57.188h1.562v21.25c0 .863.7 1.562 1.563 1.562h70.624A4.693 4.693 0 0 0 80 75.312V17.188c0-.864-.7-1.563-1.563-1.563H66.564v-1.563C66.563 6.31 60.252 0 52.5 0c-7.74 0-14.063 6.262-14.063 14.063v1.562H26.563c-.864 0-1.563.7-1.563 1.563v16.565a7.856 7.856 0 0 0-2.968 4.694 1.514 1.514 0 0 0-.157-.01c-.052 0-.104.004-.156.005-.724-3.563-3.882-6.255-7.657-6.255-4.307 0-7.812 3.505-7.812 7.813 0 1.757.583 3.38 1.567 4.688H1.562C.7 44.688 0 45.386 0 46.25v9.375c0 .863.7 1.563 1.563 1.563zm4.687 0h7.813v19.687H6.25V57.187zm10.938 0h9.375v19.687h-9.375V57.187zM37.5 76.874h-7.813V57.187H37.5v19.688zm-7.813-22.813v-6.25h10.938v6.25H29.687zm0-9.374c-.053 0-.106-.004-.16-.005a7.758 7.758 0 0 0-1.402-3.12v-5.981c.5-.177 1.028-.27 1.563-.27A4.693 4.693 0 0 1 34.374 40a4.693 4.693 0 0 1-4.688 4.688zm-7.903-3.125l1.353.171a4.704 4.704 0 0 1 3.158 2.953H17.46a4.69 4.69 0 0 1 4.324-3.124zm4.779 6.25v6.25h-9.375v-6.25h9.375zm48.75 29.062H40.624v-6.25h36.25v4.688c0 .861-.7 1.562-1.563 1.562zm-33.75-62.813c0-6.032 4.882-10.937 10.937-10.937 6.03 0 10.938 4.907 10.938 10.938v1.562H41.561v-1.563zm-3.126 4.688v7.188h-1.562a1.562 1.562 0 1 0 0 3.125h6.25a1.562 1.562 0 1 0 0-3.125h-1.563V18.75h21.876v7.188h-1.563a1.562 1.562 0 1 0 0 3.125h6.25a1.562 1.562 0 1 0 0-3.125h-1.563V18.75h10.313V67.5h-36.25V57.187h1.563c.863 0 1.562-.699 1.562-1.562V46.25c0-.863-.7-1.563-1.563-1.563h-6.254A7.771 7.771 0 0 0 37.5 40c0-4.308-3.505-7.813-7.813-7.813-.526 0-1.05.055-1.562.16V18.75h10.313zM9.375 40a4.693 4.693 0 0 1 4.688-4.688 4.695 4.695 0 0 1 4.605 3.816 7.876 7.876 0 0 0-4.444 5.555c-.053.001-.107.005-.162.005A4.693 4.693 0 0 1 9.375 40zm-6.25 7.813h10.938v6.25H3.124v-6.25z"/>
    </g>
</svg>
