<svg xmlns="http://www.w3.org/2000/svg" width="82" height="80" viewBox="0 0 82 80">
    <g fill="#27AE60" fill-opacity=".2" fill-rule="nonzero">
        <path d="M21.5 43.457c-.828 0-1.5.664-1.5 1.481 0 .818.672 1.482 1.5 1.482s1.5-.664 1.5-1.482c0-.817-.672-1.481-1.5-1.481zM21.5 55.309c-.828 0-1.5.663-1.5 1.481 0 .818.672 1.482 1.5 1.482s1.5-.664 1.5-1.482-.672-1.481-1.5-1.481zM57.026 43.457H30.974c-1.09 0-1.974.663-1.974 1.481 0 .819.884 1.482 1.974 1.482h26.052c1.09 0 1.974-.663 1.974-1.482 0-.818-.884-1.481-1.974-1.481zM57.026 55.309H30.974c-1.09 0-1.974.663-1.974 1.481 0 .818.884 1.482 1.974 1.482h26.052c1.09 0 1.974-.664 1.974-1.482s-.884-1.481-1.974-1.481z"/>
        <path d="M82 16.364V7.273C82 3.263 78.428 0 74.039 0H17.913C12.425 0 7.96 4.078 7.96 9.09v56.365h-5.97c-1.1 0-1.991.813-1.991 1.818C0 74.29 6.25 80 13.932 80h46.175c5.825 0 9.951-4.532 9.951-9.48V18.182h9.952c1.099 0 1.99-.814 1.99-1.818zm-68.068 60c-4.805 0-8.827-3.129-9.752-7.273h45.975v1.818c0 2.045.744 3.934 1.995 5.455H13.932zM66.078 7.273V70.52c0 3.011-2.39 5.844-5.971 5.844-3.293 0-5.971-2.447-5.971-5.455v-3.636c0-1.005-.891-1.818-1.99-1.818H11.942V9.09c0-3.008 2.678-5.473 5.97-5.473h49.23a6.853 6.853 0 0 0-1.064 3.655zm11.941 7.272h-7.96V7.273c0-2.034 1.808-3.637 3.98-3.637 2.195 0 3.98 1.632 3.98 3.637v7.272z"/>
        <path d="M33.726 32.442c1.115.849 2.269 1.727 3.493 2.683.368.287.824.43 1.281.43.457 0 .914-.143 1.282-.43a320.461 320.461 0 0 1 3.492-2.682C49.5 27.705 54 24.282 54 19.255c0-4.705-3.834-8.39-8.729-8.39-3.29 0-5.437 1.59-6.771 3.208-1.334-1.618-3.48-3.209-6.773-3.209-4.894 0-8.727 3.686-8.727 8.391 0 5.027 4.5 8.45 10.726 13.187zm-1.999-18.05c3.572 0 4.838 3.842 4.89 4.006.237.756 1.002 1.276 1.875 1.28h.01c.871 0 1.64-.525 1.881-1.28.052-.164 1.318-4.006 4.888-4.006 2.745 0 4.816 2.09 4.816 4.863 0 3.388-3.514 6.062-9.337 10.492-.73.555-1.477 1.123-2.25 1.719-.774-.596-1.52-1.164-2.25-1.72-5.823-4.43-9.337-7.103-9.337-10.49 0-2.774 2.07-4.864 4.814-4.864z"/>
    </g>
</svg>
