<svg xmlns="http://www.w3.org/2000/svg" width="80" height="80" viewBox="0 0 80 80">
    <path fill="#27AE60" fill-opacity=".2" fill-rule="nonzero" d="M37.581.464A1.549 1.549 0 0 1 38.69 0h34.3a7 7 0 0 1 4.952 2.051A6.957 6.957 0 0 1 80 6.988v3.247a1.55 1.55 0 0 1-1.551 1.547 1.55 1.55 0 0 1-1.552-1.547V6.988c0-1.07-.44-2.043-1.149-2.75a3.899 3.899 0 0 0-2.758-1.145H40.24V18.63a1.55 1.55 0 0 1-1.55 1.546H23.102v36.277A1.55 1.55 0 0 1 21.551 58 1.55 1.55 0 0 1 20 56.453V18.63a1.538 1.538 0 0 1 .466-1.105L37.58.465zM78.45 22c-.857 0-1.552.692-1.552 1.546v49.466c0 1.07-.44 2.043-1.149 2.75a3.9 3.9 0 0 1-2.759 1.145H27.01a3.901 3.901 0 0 1-2.759-1.146 3.876 3.876 0 0 1-1.148-2.749v-3.247a1.55 1.55 0 0 0-1.552-1.547A1.55 1.55 0 0 0 20 69.765v3.247c0 1.924.788 3.671 2.058 4.937A7 7 0 0 0 27.01 80h45.98a7 7 0 0 0 4.952-2.051A6.958 6.958 0 0 0 80 73.012V23.546c0-.854-.695-1.546-1.551-1.546zm.051-7a1.5 1.5 0 1 0 0 3 1.5 1.5 0 0 0 0-3zm-57 47a1.5 1.5 0 1 1 0 3 1.5 1.5 0 0 1 0-3zm24.05 5c-.856 0-1.55-.672-1.55-1.5s.694-1.5 1.55-1.5h24.9c.855 0 1.55.672 1.55 1.5s-.695 1.5-1.55 1.5h-24.9zm0-16h24.9c.855 0 1.55-.672 1.55-1.5s-.695-1.5-1.55-1.5h-24.9c-.856 0-1.55.672-1.55 1.5s.694 1.5 1.55 1.5zm0-16h24.9c.855 0 1.55-.672 1.55-1.5s-.695-1.5-1.55-1.5h-24.9c-.856 0-1.55.672-1.55 1.5s.694 1.5 1.55 1.5zM26.453 64.591l3.969 3.957a1.552 1.552 0 0 0 2.188 0l7.937-7.914a1.54 1.54 0 0 0 0-2.182 1.55 1.55 0 0 0-2.189 0l-6.842 6.823-2.874-2.866a1.55 1.55 0 0 0-2.189 0 1.54 1.54 0 0 0 0 2.182zm0-15l3.969 3.957a1.55 1.55 0 0 0 2.188 0l7.937-7.913a1.54 1.54 0 0 0 0-2.183 1.55 1.55 0 0 0-2.189 0l-6.842 6.822-2.874-2.865a1.55 1.55 0 0 0-2.189 0 1.54 1.54 0 0 0 0 2.182zm0-16l3.969 3.957a1.55 1.55 0 0 0 2.188 0l7.937-7.913a1.54 1.54 0 0 0 0-2.183 1.55 1.55 0 0 0-2.189 0l-6.842 6.822-2.874-2.865a1.55 1.55 0 0 0-2.189 0 1.54 1.54 0 0 0 0 2.182zM25 17h12V5L25 17z"/>
</svg>
