<svg xmlns="http://www.w3.org/2000/svg" width="80" height="80" viewBox="0 0 80 80">
    <g fill="none" fill-rule="evenodd">
        <path fill="#27AE60" fill-opacity=".2" fill-rule="nonzero" d="M68.284 11.716C60.73 4.16 50.684 0 40 0 29.315 0 19.27 4.16 11.715 11.716A40.058 40.058 0 0 0 .175 36.238c-.856 9.118 1.45 18.315 6.497 25.896a1.563 1.563 0 0 0 2.601-1.731c-9.685-14.551-7.729-34.098 4.651-46.477 14.378-14.378 37.773-14.378 52.15 0C73.04 20.89 76.875 30.15 76.875 40c0 9.85-3.836 19.11-10.8 26.075-12.883 12.882-32.927 14.493-47.661 3.83a1.563 1.563 0 0 0-1.832 2.531C23.389 77.363 31.608 80 40.008 80a39.997 39.997 0 0 0 28.276-11.715C75.84 60.73 80 50.685 80 40c0-10.685-4.16-20.73-11.716-28.284z"/>
        <path fill="#27AE60" fill-opacity=".2" fill-rule="nonzero" d="M62.45 17.608l-.05-.05a1.404 1.404 0 0 0-1.993 1.977l.05.05a1.4 1.4 0 0 0 .996.415 1.404 1.404 0 0 0 .997-2.392z"/>
        <path fill="#27AE60" fill-opacity=".2" fill-rule="nonzero" d="M66.988 23.88a1.556 1.556 0 1 0-2.67 1.598c6.67 11.147 4.903 25.358-4.296 34.557-11.043 11.043-29.013 11.043-40.057 0-11.044-11.044-11.044-29.014 0-40.058 9.194-9.193 23.398-10.962 34.543-4.303a1.557 1.557 0 0 0 1.597-2.671c-5.902-3.527-12.933-5.024-19.798-4.219-7.08.832-13.491 3.941-18.543 8.993-12.257 12.257-12.257 32.201 0 44.459 6.13 6.128 14.18 9.193 22.23 9.193s16.1-3.065 22.23-9.193c5.053-5.054 8.163-11.469 8.992-18.552.805-6.869-.696-13.902-4.228-19.804zM13.879 66.18l-.05-.05a1.404 1.404 0 0 0-1.993 1.976l.05.05a1.4 1.4 0 0 0 1.984.008c.55-.545.555-1.434.009-1.985z"/>
        <text fill="#2FB467" font-family="GenJyuuGothicX-Regular, Gen Jyuu GothicX" font-size="32" letter-spacing="-.6" opacity=".2">
            <tspan x="25" y="51">＄</tspan>
        </text>
    </g>
</svg>
