<?xml version="1.0" standalone="no"?>
<!DOCTYPE svg PUBLIC "-//W3C//DTD SVG 20010904//EN"
 "http://www.w3.org/TR/2001/REC-SVG-20010904/DTD/svg10.dtd">
<svg version="1.0" xmlns="http://www.w3.org/2000/svg"
 width="475.000000pt" height="475.000000pt" viewBox="0 0 475.000000 475.000000"
 preserveAspectRatio="xMidYMid meet">
<metadata>
Created by potrace 1.11, written by Peter Selinger 2001-2013
</metadata>
<g transform="translate(0.000000,475.000000) scale(0.100000,-0.100000)"
fill="#000000" stroke="none">
<path d="M1013 3525 c-35 -6 -63 -10 -63 -7 0 2 -7 -1 -15 -8 -8 -7 -15 -10
-15 -7 0 11 -171 -53 -251 -93 -298 -150 -506 -380 -598 -661 -54 -166 -65
-369 -27 -519 31 -125 106 -285 163 -349 13 -14 23 -29 23 -33 0 -28 210 -233
298 -291 123 -82 282 -152 391 -172 14 -3 37 -7 50 -10 61 -12 162 -18 251
-15 54 2 52 2 -55 25 -344 73 -607 245 -784 515 -113 173 -184 394 -184 575 0
44 12 156 18 165 2 4 6 17 9 31 3 13 7 34 10 46 8 38 68 166 108 232 118 195
306 366 523 474 73 37 192 81 215 80 3 0 15 3 27 8 11 4 47 11 80 15 32 3 60
8 63 11 9 8 -177 -1 -237 -12z"/>
<path d="M3504 3531 c3 -4 28 -11 56 -15 67 -9 210 -51 277 -81 29 -14 56 -25
58 -25 10 0 174 -101 210 -130 280 -222 450 -563 440 -880 -3 -105 -6 -117
-36 -216 -101 -330 -418 -649 -759 -764 -72 -24 -76 -25 -175 -46 l-70 -14
110 5 c251 11 480 104 716 291 245 194 390 495 391 809 0 55 -2 107 -5 115 -3
8 -9 32 -12 54 -8 56 -50 177 -89 254 -30 60 -127 204 -159 236 -6 7 -33 35
-58 62 -90 97 -221 193 -342 249 -77 35 -183 72 -232 81 -16 2 -54 9 -84 14
-68 12 -244 13 -237 1z"/>
<path d="M2307 3434 c-1 -1 -60 -5 -132 -8 -133 -8 -153 -9 -240 -22 -27 -4
-59 -8 -70 -10 -11 -1 -20 -3 -20 -4 0 -1 -15 -3 -34 -6 -85 -11 -353 -79
-406 -103 -11 -5 -58 -24 -105 -42 -364 -140 -628 -378 -708 -636 -23 -74 -26
-223 -5 -292 16 -57 85 -201 96 -201 4 0 7 -5 7 -10 0 -22 133 -158 219 -224
142 -108 341 -207 551 -274 100 -32 274 -75 350 -87 25 -4 52 -9 60 -10 174
-31 586 -48 737 -30 23 3 70 7 105 9 35 3 74 7 88 10 14 3 44 8 65 10 80 10
206 35 274 55 18 6 36 10 40 9 3 -1 18 4 34 10 15 7 38 14 50 16 45 8 219 76
314 122 94 46 243 139 299 186 116 100 195 197 245 303 39 81 45 101 55 190 3
28 7 56 9 63 3 6 1 12 -3 12 -4 0 -8 22 -9 48 -3 67 -48 185 -101 265 -80 120
-196 225 -359 325 -70 44 -113 65 -238 122 -95 44 -326 114 -455 139 -135 26
-134 26 -205 35 -144 18 -264 27 -403 29 -57 1 -104 2 -105 1z m389 -77 c12
-3 45 -8 75 -12 30 -3 79 -10 109 -16 70 -12 93 -16 170 -34 14 -3 36 -7 50
-10 29 -5 206 -61 235 -74 11 -5 36 -15 55 -23 64 -24 220 -107 293 -155 91
-60 223 -190 271 -266 39 -60 79 -147 69 -147 -3 0 0 -6 6 -13 24 -29 33 -177
15 -257 -29 -135 -79 -223 -193 -343 -59 -61 -180 -157 -200 -157 -6 0 -11 -4
-11 -9 0 -28 -423 -206 -535 -224 -16 -3 -37 -8 -45 -11 -8 -3 -26 -7 -40 -10
-14 -2 -63 -11 -110 -20 -176 -33 -276 -41 -525 -41 -195 0 -397 9 -414 19 -3
2 -28 6 -56 10 -44 5 -77 11 -183 32 -60 12 -241 62 -267 74 -11 5 -49 20 -85
33 -143 53 -335 166 -432 255 -79 71 -148 152 -148 171 0 6 -4 11 -9 11 -13 0
-79 151 -87 200 -34 214 34 400 210 570 64 62 194 157 258 189 24 12 50 26 58
31 52 32 314 131 385 146 48 10 62 13 93 23 18 5 36 10 40 10 9 1 56 9 97 16
175 32 328 42 580 40 138 -2 259 -5 271 -8z"/>
<path d="M2187 3094 c-1 -2 -90 -6 -197 -9 -171 -6 -246 -10 -272 -14 -11 -2
8 -46 21 -47 6 -1 24 -2 40 -3 33 -1 80 -36 98 -73 26 -51 87 -189 130 -293
46 -113 165 -397 188 -450 7 -16 45 -109 85 -205 40 -96 76 -180 81 -186 8
-10 114 -13 123 -3 2 2 45 101 96 219 51 118 100 233 110 255 39 88 63 143 91
203 16 35 29 65 29 67 0 2 16 38 35 79 19 42 35 78 35 81 0 14 92 195 114 225
36 48 96 77 152 74 45 -2 45 -2 42 30 l-3 31 -90 2 c-49 1 -153 4 -231 6
l-141 5 1 -29 c1 -16 3 -30 6 -30 3 -1 15 -3 26 -4 88 -9 98 -33 59 -143 -15
-42 -35 -95 -45 -117 -10 -22 -37 -87 -60 -145 -23 -58 -48 -118 -55 -135 -37
-84 -100 -234 -110 -263 l-12 -32 -56 127 c-30 71 -85 198 -122 283 -36 85
-70 164 -75 175 -32 70 -68 156 -80 193 -17 54 -8 65 63 72 47 5 52 7 52 30 0
24 -3 25 -63 25 -34 1 -64 0 -65 -1z"/>
<path d="M1767 2893 c-4 -3 -218 -16 -244 -15 -17 1 -23 -4 -23 -18 0 -13 7
-20 19 -20 35 0 43 -24 19 -56 -12 -16 -25 -31 -28 -34 -3 -3 -39 -48 -80
-100 -41 -52 -83 -104 -92 -115 -9 -11 -25 -30 -35 -42 -10 -12 -27 -23 -38
-25 -19 -3 -20 3 -21 142 0 80 4 155 9 167 10 22 53 43 88 43 12 0 19 7 19 19
0 17 -6 19 -52 16 -291 -16 -314 -19 -305 -50 2 -5 14 -12 28 -13 50 -8 47 31
35 -482 -5 -222 -7 -236 -26 -252 -11 -9 -29 -15 -40 -13 -19 4 -33 -15 -22
-31 4 -5 54 -9 112 -10 58 0 139 -2 180 -5 70 -4 75 -3 75 16 0 15 -9 21 -38
26 -21 3 -43 11 -50 18 -8 8 -12 65 -12 184 0 165 1 172 20 172 14 0 38 -26
78 -85 65 -96 151 -237 160 -261 9 -27 -8 -43 -55 -48 -8 -1 -4 -28 5 -38 4
-4 74 -8 155 -9 81 0 172 -2 202 -3 96 -4 100 -4 100 24 0 14 -3 25 -7 26 -5
0 -24 3 -43 6 -19 2 -41 5 -49 6 -28 1 -83 71 -231 292 l-151 226 33 38 c18
21 42 48 53 62 129 157 124 152 174 174 28 13 92 22 169 25 6 0 12 11 12 24 0
22 -4 24 -51 23 -27 -1 -51 -2 -52 -4z"/>
<path d="M3277 2874 c-2 -3 -55 -6 -116 -6 -61 -1 -114 -5 -117 -10 -9 -14 13
-33 39 -34 54 -2 56 -4 71 -51 10 -37 14 -126 15 -376 2 -295 0 -330 -16 -357
-15 -27 -48 -42 -92 -44 -8 -1 -15 -8 -16 -17 -3 -15 19 -16 243 -13 249 4
296 10 365 45 52 27 75 47 104 93 58 91 44 215 -34 287 -33 32 -108 71 -117
62 -3 -4 -6 -2 -6 4 0 6 12 16 28 21 61 23 108 85 111 148 7 135 -131 231
-347 240 -51 2 -97 6 -101 9 -5 2 -11 2 -14 -1z m192 -80 c38 -25 72 -64 87
-101 17 -40 18 -120 1 -152 -27 -54 -109 -87 -172 -70 l-35 10 0 157 c0 108 4
162 12 170 15 15 73 7 107 -14z m53 -395 c48 -34 57 -44 74 -86 30 -71 15
-204 -28 -247 -39 -38 -97 -50 -148 -30 -56 23 -63 47 -65 224 -2 176 -6 170
82 165 34 -1 62 -10 85 -26z"/>
</g>
</svg>
