<?xml version="1.0" encoding="UTF-8"?>
<svg width="50px" height="60px" viewBox="0 0 50 60" version="1.1" xmlns="http://www.w3.org/2000/svg" xmlns:xlink="http://www.w3.org/1999/xlink">
    <!-- Generator: Sketch 48.1 (47250) - http://www.bohemiancoding.com/sketch -->
    <title>forms</title>
    <desc>Created with Sketch.</desc>
    <defs></defs>
    <g id="2.0.0_Personal-Finance-ownload-Forms" stroke="none" stroke-width="1" fill="none" fill-rule="evenodd" transform="translate(-316.000000, -664.000000)">
        <g id="forms" transform="translate(316.000000, 664.000000)" fill-rule="nonzero">
            <path d="M48.9283134,14.866846 L34.4730169,0.358710237 C34.2440514,0.129023186 33.9338214,0 33.6102807,0 L5.92928231,0 C2.65978203,0 0,2.66976041 0,5.95123838 L0,54.0488788 C0,57.3302396 2.65989879,60 5.92939907,60 L43.3563152,60 C46.6258155,60 49.2857143,57.3303568 49.2857143,54.0488788 L49.2857143,15.7327427 C49.2855975,15.4080168 49.1570453,15.096533 48.9283134,14.866846 Z M34.8306513,4.18112465 L45.1203182,14.5083701 L38.3200098,14.5083701 C37.3878017,14.5083701 36.5114047,14.1440349 35.8524139,13.4826299 C35.1933064,12.8213421 34.8305345,11.9418517 34.8306513,11.0063457 L34.8306513,4.18112465 Z M46.8455569,54.0487616 C46.8455569,55.9798907 45.2802787,57.5509032 43.3563152,57.5509032 L5.92928231,57.5509032 C4.00520206,57.5509032 2.43992384,55.9798907 2.43992384,54.0487616 L2.43992384,5.95123838 C2.4400406,4.02010934 4.00531882,2.44897959 5.92928231,2.44897959 L32.3906107,2.44897959 L32.3906107,11.0061113 C32.3903772,12.5957566 33.007101,14.0902459 34.1269416,15.214189 C35.246899,16.3382493 36.7359333,16.9572325 38.319893,16.9572325 L46.8454402,16.9572325 L46.8454402,54.0487616 L46.8455569,54.0487616 Z" id="Shape" fill="#4A4A4A"></path>
            <path d="M11.6898655,35.7142857 L11.1672774,35.7142857 C10.5226999,35.7142857 10,36.1939625 10,36.7857143 C10,37.3774661 10.5226999,37.8571429 11.1672774,37.8571429 L11.6898655,37.8571429 C12.334443,37.8571429 12.8571429,37.3774661 12.8571429,36.7857143 C12.8571429,36.1939625 12.334443,35.7142857 11.6898655,35.7142857 Z" id="Shape" fill="#1C68A5"></path>
            <path d="M38.0668442,35.7142857 L16.21887,35.7142857 C15.5458027,35.7142857 15,36.1939625 15,36.7857143 C15,37.3774661 15.5458027,37.8571429 16.21887,37.8571429 L38.0668442,37.8571429 C38.7399115,37.8571429 39.2857143,37.3774661 39.2857143,36.7857143 C39.2857143,36.1939625 38.7399115,35.7142857 38.0668442,35.7142857 Z" id="Shape" fill="#1C68A5"></path>
            <path d="M11.6898655,30 L11.1672774,30 C10.5226999,30 10,30.4796768 10,31.0714286 C10,31.6631803 10.5226999,32.1428571 11.1672774,32.1428571 L11.6898655,32.1428571 C12.334443,32.1428571 12.8571429,31.6631803 12.8571429,31.0714286 C12.8571429,30.4796768 12.334443,30 11.6898655,30 Z" id="Shape" fill="#1C68A5"></path>
            <path d="M38.0668442,30 L16.21887,30 C15.5458027,30 15,30.4796768 15,31.0714286 C15,31.6631803 15.5458027,32.1428571 16.21887,32.1428571 L38.0668442,32.1428571 C38.7399115,32.1428571 39.2857143,31.6631803 39.2857143,31.0714286 C39.2857143,30.4796768 38.7399115,30 38.0668442,30 Z" id="Shape" fill="#1C68A5"></path>
            <path d="M11.6898655,24.2857143 L11.1672774,24.2857143 C10.5226999,24.2857143 10,24.7653911 10,25.3571429 C10,25.9488946 10.5226999,26.4285714 11.1672774,26.4285714 L11.6898655,26.4285714 C12.334443,26.4285714 12.8571429,25.9488946 12.8571429,25.3571429 C12.8571429,24.7653911 12.334443,24.2857143 11.6898655,24.2857143 Z" id="Shape" fill="#1C68A5"></path>
            <path d="M38.0668442,24.2857143 L16.21887,24.2857143 C15.5458027,24.2857143 15,24.7653911 15,25.3571429 C15,25.9488946 15.5458027,26.4285714 16.21887,26.4285714 L38.0668442,26.4285714 C38.7399115,26.4285714 39.2857143,25.9488946 39.2857143,25.3571429 C39.2857143,24.7653911 38.7399115,24.2857143 38.0668442,24.2857143 Z" id="Shape" fill="#1C68A5"></path>
        </g>
    </g>
</svg>