<svg width="50" height="63" viewBox="0 0 50 63" xmlns="http://www.w3.org/2000/svg" xmlns:xlink="http://www.w3.org/1999/xlink"><title>icon-accounting</title><desc>Created using Figma</desc><use xlink:href="#a" transform="translate(0 24.434)" fill="#1C68A5"/><use xlink:href="#b" transform="translate(0 2.22)" fill="#1C68A5"/><use xlink:href="#c" transform="translate(30 6.664)" fill="#1C68A5"/><use xlink:href="#d" transform="translate(22.222 9.996)" fill="#1C68A5"/><g><use xlink:href="#e" transform="translate(25.556 27.766)" fill="#1C68A5"/><use xlink:href="#f" transform="translate(31.11 15.55)" fill="#1C68A5"/></g><defs><path id="a" fill-rule="evenodd" d="M12.564 13.536h9.872c.538 0 .897.36.897.902V27.974c0 .54-.36.902-.897.902H.896c-.537 0-.896-.36-.896-.902V.902C0 .362.36 0 .897 0h10.77c.538 0 .897.36.897.902V13.536zM10.77 15.34H1.794v2.708h8.974V15.34zm0-1.804H1.794V10.83h8.974v2.706zM1.794 9.024h8.974V6.317H1.794v2.707zm0 10.829h8.974v2.707H1.794v-2.707zm19.743 0h-8.974v2.707h8.974v-2.707zm0-1.805h-8.974V15.34h8.974v2.708zM10.768 1.805H1.796v2.707h8.974V1.805zm-8.973 22.56h8.974v2.707H1.794v-2.708zm10.77 2.707h8.973v-2.708h-8.974v2.707z"/><path id="b" fill-rule="evenodd" d="M10.4 11.014H1.6v7.867H0v-8.653c0-.04.02-.08.04-.118.02-.04.04-.08.04-.12v-.078c.04-.04.06-.078.08-.118.02-.04.04-.078.08-.118l9.6-9.44c.04-.04.08-.06.12-.08.04-.018.08-.038.12-.077h.08c.08-.08.16-.08.24-.08h28.8c.48 0 .8.315.8.787v11.8h-1.6V1.573H11.2v8.654c0 .472-.32.787-.8.787zM2.72 9.44H9.6V2.675L6.16 6.058 2.72 9.44z"/><path id="c" d="M0 0h5.556v1.666H0V0z"/><path id="d" d="M0 0h14.444v1.666H0V0z"/><path id="e" fill-rule="evenodd" d="M20.23 16.814h3.372c.505 0 .843.32.843.8v8.008c0 .48-.338.8-.843.8h-7.587v7.207c0 .48-.337.8-.843.8H5.057c-.505 0-.842-.32-.842-.8V6.404H5.9v26.423h3.372V17.615h1.686v15.213h3.37l.002-7.206V6.405h1.685v10.41h2.53V5.604c0-2.242-1.855-4.004-4.216-4.004H13.4l-2.36 5.926c-.253.24-.59.48-.927.48-.337 0-.674-.24-.76-.48L6.996 1.6H5.9c-2.36 0-4.214 1.763-4.214 4.005v11.21H0V5.604C0 2.482 2.613 0 5.9 0h8.43c3.287 0 5.9 2.482 5.9 5.605v11.21zM8.85 1.6l1.35 3.364L11.547 1.6H8.85zm13.91 16.816v3.203l-6.745-.002v-3.202h6.744zm-6.745 4.804v1.6h6.744v-1.6h-6.745z"/><path id="f" fill-rule="evenodd" d="M5.833 11.106H4.167C1.833 11.106 0 9.226 0 6.836V4.27C0 1.88 1.833 0 4.167 0h1.666C8.167 0 10 1.88 10 4.272v2.563c0 2.392-1.833 4.27-4.167 4.27zM4.167 1.71c-1.417 0-2.5 1.11-2.5 2.562v2.563c0 1.452 1.083 2.563 2.5 2.563h1.666c1.417 0 2.5-1.11 2.5-2.563V4.272c0-1.453-1.083-2.563-2.5-2.563H4.167z"/></defs></svg>