<?xml version="1.0" encoding="UTF-8"?>
<svg width="65px" height="65px" viewBox="0 0 65 65" version="1.1" xmlns="http://www.w3.org/2000/svg" xmlns:xlink="http://www.w3.org/1999/xlink">
    <!-- Generator: Sketch 48.1 (47250) - http://www.bohemiancoding.com/sketch -->
    <title>contract</title>
    <desc>Created with Sketch.</desc>
    <defs></defs>
    <g id="2.0.0_Personal-Finance-Products" stroke="none" stroke-width="1" fill="none" fill-rule="evenodd" transform="translate(-688.000000, -739.000000)">
        <g id="Group-5" transform="translate(608.000000, 739.000000)" fill-rule="nonzero">
            <g id="contract" transform="translate(80.000000, 0.000000)">
                <path d="M28.9119238,26.4967676 L28.014873,26.4967676 L28.014873,23.5986816 L30.2919043,23.5986816 C30.8635742,23.5986816 31.3269531,23.1353027 31.3269531,22.5636328 C31.3269531,21.9919629 30.8635742,21.528584 30.2919043,21.528584 L28.014873,21.528584 L28.014873,20.3555371 C28.014873,19.7838672 27.5514941,19.3204883 26.9798242,19.3204883 C26.4081543,19.3204883 25.9447754,19.7838672 25.9447754,20.3555371 L25.9447754,21.528584 L25.0478516,21.528584 C23.7162402,21.528584 22.6328223,22.612002 22.6328223,23.9436133 L22.6328223,26.151709 C22.6328223,27.4833203 23.7162402,28.5667383 25.0478516,28.5667383 L25.9449023,28.5667383 L25.9449023,31.4648242 L23.6678711,31.4648242 C23.0962012,31.4648242 22.6328223,31.9282031 22.6328223,32.499873 C22.6328223,33.071543 23.0962012,33.5349219 23.6678711,33.5349219 L25.9449023,33.5349219 L25.9449023,34.7079687 C25.9449023,35.2796387 26.4082812,35.7430176 26.9799512,35.7430176 C27.5516211,35.7430176 28.015,35.2796387 28.015,34.7079687 L28.015,33.5349219 L28.9120508,33.5349219 C30.2436621,33.5349219 31.3270801,32.4515039 31.3270801,31.1198926 L31.3270801,28.9117969 C31.3269531,27.5803125 30.2435352,26.4967676 28.9119238,26.4967676 Z M25.9447754,26.4967676 L25.0478516,26.4967676 C24.8576758,26.4967676 24.702793,26.3418848 24.702793,26.151709 L24.702793,23.9436133 C24.702793,23.7534375 24.8576758,23.5985547 25.0478516,23.5985547 L25.9449023,23.5985547 L25.9449023,26.4967676 L25.9447754,26.4967676 Z M29.2568555,31.1200195 C29.2568555,31.3101953 29.1019727,31.4650781 28.9117969,31.4650781 L28.0147461,31.4650781 L28.0147461,28.5669922 L28.9117969,28.5669922 C29.1019727,28.5669922 29.2568555,28.721875 29.2568555,28.9120508 L29.2568555,31.1200195 Z" id="Shape" fill="#1C68A5"></path>
                <path d="M64.6968359,27.4953809 L60.0127734,22.8113184 C59.6086816,22.4069727 58.9533496,22.4070996 58.5491309,22.8113184 L53.9596484,27.4008008 L53.9596484,1.03504883 C53.9596484,0.463378906 53.4962695,0 52.9245996,0 L1.03504883,0 C0.463378906,0 0,0.463378906 0,1.03504883 L0,51.268623 C0,51.840293 0.463378906,52.3036719 1.03504883,52.3036719 C1.60671875,52.3036719 2.07009766,51.840293 2.07009766,51.268623 L2.07009766,2.07009766 L51.8896777,2.07009766 L51.8896777,29.4708984 L44.3754492,36.985127 L41.8153125,36.985127 L41.8153125,18.0785059 L45.1964551,18.0785059 C45.768125,18.0785059 46.2315039,17.615127 46.2315039,17.043457 L46.2315039,13.731377 C46.2315039,13.159707 45.768125,12.6963281 45.1964551,12.6963281 L41.0830469,12.6963281 L27.5377832,4.02733398 C27.1975488,3.80973633 26.7620996,3.80973633 26.4218652,4.02733398 L12.8766016,12.6963281 L8.76332031,12.6963281 C8.19165039,12.6963281 7.72827148,13.159707 7.72827148,13.731377 L7.72827148,17.043457 C7.72827148,17.615127 8.19165039,18.0785059 8.76332031,18.0785059 L12.1443359,18.0785059 L12.1443359,36.985127 L8.76332031,36.985127 C8.19165039,36.985127 7.72827148,37.4485059 7.72827148,38.0201758 L7.72827148,41.3322559 C7.72827148,41.9039258 8.19165039,42.3673047 8.76332031,42.3673047 L38.9932715,42.3673047 L31.2582715,50.1023047 C31.2559863,50.1045898 31.2538281,50.1072559 31.251543,50.1097949 C31.1290332,50.2239258 31.0324219,50.3694141 30.9756738,50.5395313 L28.6337695,57.565625 C28.3693262,58.3587012 29.1491992,59.1393359 29.9430371,58.8748926 L36.9691309,56.5328613 C37.1400098,56.4758594 37.2860059,56.3786133 37.4002637,56.2552148 C37.4044531,56.2510254 37.4091504,56.2474707 37.4130859,56.2432813 L43.7483008,49.7855566 C44.148457,49.3775293 44.1423633,48.7220703 43.734209,48.3219141 C43.3261816,47.9217578 42.6708496,47.9281055 42.2705664,48.3360059 L36.6672363,54.0478809 L33.4539258,50.8345703 L55.3452148,28.9432813 L58.5655078,32.1635742 L46.81625,43.912832 C46.4120313,44.3170508 46.4120313,44.9723828 46.81625,45.3764746 C47.2204688,45.7806934 47.8758008,45.7806934 48.2798926,45.3764746 L51.8896777,41.7665625 L51.8896777,52.9937891 L42.9883594,52.9937891 C42.4166895,52.9937891 41.9533105,53.457168 41.9533105,54.0288379 L41.9533105,62.9301563 L2.07009766,62.9301563 L2.07009766,56.7889258 C2.07009766,56.2172559 1.60671875,55.753877 1.03504883,55.753877 C0.463378906,55.753877 0,56.2172559 0,56.7889258 L0,63.9652051 C0,64.5366211 0.463378906,65 1.03504883,65 L42.9883594,65 C43.2595313,65 43.5285449,64.8886621 43.7202441,64.6968359 L53.6566113,54.7604688 C53.8484375,54.5687695 53.9597754,54.2997559 53.9597754,54.028584 L53.9597754,39.6963379 L60.7610352,32.8950781 L64.6969629,28.9591504 C65.1010547,28.5550586 65.1010547,27.8995996 64.6968359,27.4953809 Z M34.7742383,55.082168 L31.2520508,56.2563574 L32.4259863,52.734043 L34.7742383,55.082168 Z M26.9798242,6.12790039 L37.2429688,12.6963281 L16.7168066,12.6963281 L26.9798242,6.12790039 Z M9.79836914,16.0085352 L9.79836914,14.7665527 L44.1614062,14.7665527 L44.1614062,16.0085352 L9.79836914,16.0085352 Z M39.7452148,18.0785059 L39.7452148,36.985127 L36.2951367,36.985127 L36.2951367,18.0785059 L39.7452148,18.0785059 Z M34.2250391,18.0785059 L34.2250391,36.985127 L19.7346094,36.985127 L19.7346094,18.0785059 L34.2250391,18.0785059 Z M17.6645117,18.0785059 L17.6645117,36.985127 L14.2144336,36.985127 L14.2144336,18.0785059 L17.6645117,18.0785059 Z M41.0633691,40.297207 L9.79836914,40.297207 L9.79836914,39.0552246 L42.3053516,39.0552246 L41.0633691,40.297207 Z M44.0234082,61.4662598 L44.0234082,55.0636328 L50.4260352,55.0636328 L44.0234082,61.4662598 Z M60.0291504,30.6994238 L56.8088574,27.4791309 L59.2810156,25.0070996 L62.5011816,28.2272656 L60.0291504,30.6994238 Z" id="Shape" fill="#4A4A4A"></path>
                <path d="M26.427832,51.3375586 L13.1793848,51.3375586 C12.6077148,51.3375586 12.1443359,51.8009375 12.1443359,52.3726074 C12.1443359,52.9442773 12.6077148,53.4076563 13.1793848,53.4076563 L26.427832,53.4076563 C26.999502,53.4076563 27.4628809,52.9442773 27.4628809,52.3726074 C27.4628809,51.8009375 26.999502,51.3375586 26.427832,51.3375586 Z" id="Shape" fill="#4A4A4A"></path>
                <path d="M27.5318164,56.8577344 L13.1793848,56.8577344 C12.6077148,56.8577344 12.1443359,57.3211133 12.1443359,57.8927832 C12.1443359,58.4644531 12.6077148,58.927832 13.1793848,58.927832 L27.5318164,58.927832 C28.1034863,58.927832 28.5668652,58.4644531 28.5668652,57.8927832 C28.5668652,57.3211133 28.1034863,56.8577344 27.5318164,56.8577344 Z" id="Shape" fill="#4A4A4A"></path>
                <path d="M26.427832,45.8173828 L13.1793848,45.8173828 C12.6077148,45.8173828 12.1443359,46.2807617 12.1443359,46.8524316 C12.1443359,47.4241016 12.6077148,47.8874805 13.1793848,47.8874805 L26.427832,47.8874805 C26.999502,47.8874805 27.4628809,47.4241016 27.4628809,46.8524316 C27.4628809,46.2807617 26.999502,45.8173828 26.427832,45.8173828 Z" id="Shape" fill="#4A4A4A"></path>
            </g>
        </g>
    </g>
</svg>