<svg width="42" height="42" viewBox="0 0 42 42" xmlns="http://www.w3.org/2000/svg" xmlns:xlink="http://www.w3.org/1999/xlink"><title>pie-chart</title><desc>Created using Figma</desc><use xlink:href="#a" transform="translate(4.11 4.11)" fill="#4A4A4A"/><use xlink:href="#b" fill="#1C68A5"/><use xlink:href="#c" transform="translate(4.11 15.29)" fill="#1C68A5"/><use xlink:href="#c" transform="translate(7.08 15.29)" fill="#1C68A5"/><use xlink:href="#c" transform="translate(9.82 15.29)" fill="#1C68A5"/><use xlink:href="#c" transform="translate(12.55 15.29)" fill="#1C68A5"/><use xlink:href="#c" transform="translate(15.29 15.29)" fill="#1C68A5"/><use xlink:href="#c" transform="translate(7.08 12.55)" fill="#1C68A5"/><use xlink:href="#c" transform="translate(9.82 12.55)" fill="#1C68A5"/><use xlink:href="#c" transform="translate(12.55 12.55)" fill="#1C68A5"/><use xlink:href="#c" transform="translate(15.29 12.55)" fill="#1C68A5"/><use xlink:href="#c" transform="translate(9.82 9.82)" fill="#1C68A5"/><use xlink:href="#c" transform="translate(12.55 9.82)" fill="#1C68A5"/><use xlink:href="#c" transform="translate(15.29 9.82)" fill="#1C68A5"/><use xlink:href="#c" transform="translate(12.55 7.08)" fill="#1C68A5"/><use xlink:href="#c" transform="translate(15.29 7.08)" fill="#1C68A5"/><use xlink:href="#c" transform="translate(15.29 4.11)" fill="#1C68A5"/><defs><path id="a" fill-rule="evenodd" d="M18.946 0c-.388 0-.702.314-.702.702v17.542H.702c-.388 0-.702.314-.702.702C0 29.392 8.5 37.89 18.946 37.89c10.446 0 18.945-8.498 18.945-18.944C37.89 8.5 29.393 0 18.947 0zm.7 1.417c4.478.177 8.526 2.043 11.533 4.973L19.646 17.315V1.417zm-18.23 18.23c.37 9.35 8.092 16.84 17.53 16.84 9.672 0 17.542-7.87 17.542-17.54 0-4.416-1.64-8.455-4.34-11.54L19.44 19.44l-.014.013-.002-.002c-.126.12-.293.194-.48.194H1.416z"/><path id="b" fill-rule="evenodd" d="M0 18.93C0 8.49 8.492 0 18.93 0c.387 0 .7.313.7.7v18.23c0 .387-.313.7-.7.7H.7c-.387 0-.7-.313-.7-.7zm1.416-.702h16.812V1.416C9.12 1.776 1.776 9.12 1.416 18.228z"/><path id="c" d="M0 .685C0 .307.307 0 .685 0c.378 0 .685.307.685.685 0 .378-.307.685-.685.685C.307 1.37 0 1.063 0 .685z"/></defs></svg>