<?xml version="1.0" encoding="UTF-8"?>
<svg width="65px" height="65px" viewBox="0 0 65 65" version="1.1" xmlns="http://www.w3.org/2000/svg" xmlns:xlink="http://www.w3.org/1999/xlink">
    <!-- Generator: Sketch 48.1 (47250) - http://www.bohemiancoding.com/sketch -->
    <title>finance</title>
    <desc>Created with Sketch.</desc>
    <defs></defs>
    <g id="2.0.0_Personal-Finance-Products" stroke="none" stroke-width="1" fill="none" fill-rule="evenodd" transform="translate(-298.000000, -739.000000)">
        <g id="Group-4" transform="translate(218.000000, 739.000000)" fill-rule="nonzero">
            <g id="finance" transform="translate(80.000000, 0.000000)">
                <path d="M56.7041129,25.6320161 C54.5884677,18.1675 49.1116935,12.0816129 41.9218548,9.17443548 C41.7824194,4.09290323 37.6140323,0 32.5,0 C27.3849194,0 23.2175806,4.09290323 23.0781452,9.17548387 C15.8883065,12.0816129 10.4104839,18.1664516 8.29693548,25.6320161 C3.50895161,27.0347581 0,31.4589516 0,36.6935484 C0,43.0520161 5.17379032,48.2258065 11.5322581,48.2258065 C12.6194355,48.2258065 13.6804032,48.0654032 14.7078226,47.7708065 C15.0244355,57.3226613 22.8726613,65 32.5,65 C42.1273387,65 49.9755645,57.3226613 50.2921774,47.7708065 C51.3195968,48.0654032 52.3805645,48.2258065 53.4677419,48.2258065 C59.8262097,48.2258065 65,43.0520161 65,36.6935484 C65,31.4589516 61.4910484,27.0347581 56.7041129,25.6320161 Z M54.386129,25.2074194 C54.0820968,25.1833065 53.7780645,25.1612903 53.4677419,25.1612903 C53.0232258,25.1612903 52.585,25.1958871 52.1509677,25.2462097 C50.1957258,19.9434677 46.2129032,15.6933065 41.0579839,13.3847581 C41.3546774,12.7441935 41.5895161,12.0690323 41.7373387,11.3603226 C47.7162903,13.9770968 52.3281452,19.0240323 54.386129,25.2074194 Z M35.6451613,29.6494355 L35.6451613,18.3205645 C37.3708065,17.7072581 38.8637097,16.6095968 39.9634677,15.1858871 C44.6256452,17.1966935 48.2457258,20.9645968 50.0741129,25.6854839 C46.7192742,26.7265323 43.9662097,29.2594355 42.6966129,32.5807258 C40.6239516,31.1287097 38.2315323,30.1128226 35.6451613,29.6494355 Z M22.3033871,32.5807258 C21.0327419,29.2594355 18.2807258,26.7254839 14.9258871,25.6854839 C16.7542742,20.9656452 20.3733065,17.1966935 25.0365323,15.1858871 C26.1362903,16.6095968 27.6291935,17.7072581 29.3548387,18.3205645 L29.3548387,29.6504839 C26.7684677,30.1128226 24.3760484,31.1287097 22.3033871,32.5807258 Z M31.4516129,18.8091129 C31.7965323,18.8479032 32.1456452,18.8709677 32.5,18.8709677 C32.8543548,18.8709677 33.2034677,18.8479032 33.5483871,18.8091129 L33.5483871,29.4083065 C33.1992742,29.3873387 32.8543548,29.3548387 32.5,29.3548387 C32.1456452,29.3548387 31.8007258,29.3873387 31.4516129,29.4083065 L31.4516129,18.8091129 Z M32.5,2.09677419 C36.5467742,2.09677419 39.8387097,5.38975806 39.8387097,9.43548387 C39.8387097,13.4812097 36.5467742,16.7741935 32.5,16.7741935 C28.4532258,16.7741935 25.1612903,13.4812097 25.1612903,9.43548387 C25.1612903,5.38975806 28.4532258,2.09677419 32.5,2.09677419 Z M23.2637097,11.361371 C23.4115323,12.0690323 23.646371,12.7441935 23.9430645,13.3847581 C18.7870968,15.6933065 14.8053226,19.9434677 12.8490323,25.2462097 C12.415,25.1958871 11.9767742,25.1612903 11.5322581,25.1612903 C11.2219355,25.1612903 10.9168548,25.1833065 10.6128226,25.2074194 C12.6718548,19.0240323 17.2837097,13.9770968 23.2637097,11.361371 Z M2.09677419,36.6935484 C2.09677419,31.4904032 6.33016129,27.2580645 11.5322581,27.2580645 C15.7142742,27.2580645 19.3867742,30.0362903 20.5693548,33.9750806 C17.3392742,36.8969355 15.1764516,40.9699194 14.7602419,45.5503226 C13.728629,45.9266935 12.6477419,46.1290323 11.5322581,46.1290323 C6.33016129,46.1290323 2.09677419,41.8966935 2.09677419,36.6935484 Z M32.5,62.9032258 C23.8287903,62.9032258 16.7741935,55.848629 16.7741935,47.1774194 C16.7741935,38.5062097 23.8287903,31.4516129 32.5,31.4516129 C41.1712097,31.4516129 48.2258065,38.5062097 48.2258065,47.1774194 C48.2258065,55.848629 41.1712097,62.9032258 32.5,62.9032258 Z M53.4677419,46.1290323 C52.3533065,46.1290323 51.2724194,45.9266935 50.2397581,45.5503226 C49.8225,40.9699194 47.6596774,36.8969355 44.4306452,33.9750806 C45.6132258,30.0362903 49.2857258,27.2580645 53.4677419,27.2580645 C58.6698387,27.2580645 62.9032258,31.4904032 62.9032258,36.6935484 C62.9032258,41.8966935 58.6698387,46.1290323 53.4677419,46.1290323 Z" id="Shape" fill="#4A4A4A"></path>
                <path d="M34.8064516,35.6451613 L33.7580645,35.6451613 L33.7580645,33.5483871 L31.6612903,33.5483871 L31.6612903,35.6451613 L30.6129032,35.6451613 C27.1437903,35.6451613 24.3225806,38.466371 24.3225806,41.9354839 C24.3225806,45.4045968 27.1437903,48.2258065 30.6129032,48.2258065 L34.8064516,48.2258065 C37.1191935,48.2258065 39,50.1066129 39,52.4193548 C39,54.7320968 37.1191935,56.6129032 34.8064516,56.6129032 L30.6129032,56.6129032 C28.3001613,56.6129032 26.4193548,54.7320968 26.4193548,52.4193548 L26.4193548,50.3225806 L24.3225806,50.3225806 L24.3225806,52.4193548 C24.3225806,55.8884677 27.1437903,58.7096774 30.6129032,58.7096774 L31.6612903,58.7096774 L31.6612903,60.8064516 L33.7580645,60.8064516 L33.7580645,58.7096774 L34.8064516,58.7096774 C38.2755645,58.7096774 41.0967742,55.8884677 41.0967742,52.4193548 C41.0967742,48.9502419 38.2755645,46.1290323 34.8064516,46.1290323 L30.6129032,46.1290323 C28.3001613,46.1290323 26.4193548,44.2482258 26.4193548,41.9354839 C26.4193548,39.6227419 28.3001613,37.7419355 30.6129032,37.7419355 L34.8064516,37.7419355 C37.1191935,37.7419355 39,39.6227419 39,41.9354839 L39,44.0322581 L41.0967742,44.0322581 L41.0967742,41.9354839 C41.0967742,38.466371 38.2755645,35.6451613 34.8064516,35.6451613 Z" id="Shape" fill="#1C68A5"></path>
                <path d="M15.9354839,38.7903226 C15.9354839,37.0562903 14.5243548,35.6451613 12.7903226,35.6451613 L10.6935484,35.6451613 C10.1158871,35.6451613 9.64516129,35.1754839 9.64516129,34.5967742 C9.64516129,34.0180645 10.1158871,33.5483871 10.6935484,33.5483871 L12.7903226,33.5483871 C13.3679839,33.5483871 13.8387097,34.0180645 13.8387097,34.5967742 L15.9354839,34.5967742 C15.9354839,32.8627419 14.5243548,31.4516129 12.7903226,31.4516129 L12.7903226,29.3548387 L10.6935484,29.3548387 L10.6935484,31.4516129 C8.95951613,31.4516129 7.5483871,32.8627419 7.5483871,34.5967742 C7.5483871,36.3308065 8.95951613,37.7419355 10.6935484,37.7419355 L12.7903226,37.7419355 C13.3679839,37.7419355 13.8387097,38.2116129 13.8387097,38.7903226 C13.8387097,39.3690323 13.3679839,39.8387097 12.7903226,39.8387097 L10.6935484,39.8387097 C10.1158871,39.8387097 9.64516129,39.3690323 9.64516129,38.7903226 L7.5483871,38.7903226 C7.5483871,40.5243548 8.95951613,41.9354839 10.6935484,41.9354839 L10.6935484,44.0322581 L12.7903226,44.0322581 L12.7903226,41.9354839 C14.5243548,41.9354839 15.9354839,40.5243548 15.9354839,38.7903226 Z" id="Shape" fill="#4A4A4A"></path>
                <path d="M52.6290323,33.5483871 L54.7258065,33.5483871 C55.3034677,33.5483871 55.7741935,34.0180645 55.7741935,34.5967742 L57.8709677,34.5967742 C57.8709677,32.8627419 56.4598387,31.4516129 54.7258065,31.4516129 L54.7258065,29.3548387 L52.6290323,29.3548387 L52.6290323,31.4516129 C50.895,31.4516129 49.483871,32.8627419 49.483871,34.5967742 C49.483871,36.3308065 50.895,37.7419355 52.6290323,37.7419355 L54.7258065,37.7419355 C55.3034677,37.7419355 55.7741935,38.2116129 55.7741935,38.7903226 C55.7741935,39.3690323 55.3034677,39.8387097 54.7258065,39.8387097 L52.6290323,39.8387097 C52.051371,39.8387097 51.5806452,39.3690323 51.5806452,38.7903226 L49.483871,38.7903226 C49.483871,40.5243548 50.895,41.9354839 52.6290323,41.9354839 L52.6290323,44.0322581 L54.7258065,44.0322581 L54.7258065,41.9354839 C56.4598387,41.9354839 57.8709677,40.5243548 57.8709677,38.7903226 C57.8709677,37.0562903 56.4598387,35.6451613 54.7258065,35.6451613 L52.6290323,35.6451613 C52.051371,35.6451613 51.5806452,35.1754839 51.5806452,34.5967742 C51.5806452,34.0180645 52.051371,33.5483871 52.6290323,33.5483871 Z" id="Shape" fill="#4A4A4A"></path>
                <path d="M32.5,14.6774194 C33.4194355,14.6774194 34.3262903,14.4352419 35.1209677,13.9760484 L34.0725806,12.1602419 C33.5955645,12.4349194 33.0525,12.5806452 32.5,12.5806452 C30.7659677,12.5806452 29.3548387,11.1695161 29.3548387,9.43548387 C29.3548387,7.70145161 30.7659677,6.29032258 32.5,6.29032258 C34.2340323,6.29032258 35.6451613,7.70145161 35.6451613,9.43548387 C35.6451613,9.98903226 35.4994355,10.5320968 35.2258065,11.0070161 L37.0395161,12.0575 C37.4997581,11.263871 37.7419355,10.3570161 37.7419355,9.43548387 C37.7419355,6.54508065 35.3904032,4.19354839 32.5,4.19354839 C29.6095968,4.19354839 27.2580645,6.54508065 27.2580645,9.43548387 C27.2580645,12.3258871 29.6095968,14.6774194 32.5,14.6774194 Z" id="Shape" fill="#4A4A4A"></path>
                <rect id="Rectangle-path" fill="#1C68A5" x="43.1935484" y="46.1290323" width="2.09677419" height="2.09677419"></rect>
                <rect id="Rectangle-path" fill="#1C68A5" x="19.7096774" y="46.1290323" width="2.09677419" height="2.09677419"></rect>
            </g>
        </g>
    </g>
</svg>