<?xml version="1.0" encoding="UTF-8"?>
<svg width="67px" height="53px" viewBox="0 0 67 53" version="1.1" xmlns="http://www.w3.org/2000/svg" xmlns:xlink="http://www.w3.org/1999/xlink">
    <!-- Generator: Sketch 48.1 (47250) - http://www.bohemiancoding.com/sketch -->
    <title>scholarship</title>
    <desc>Created with Sketch.</desc>
    <defs></defs>
    <g id="2.0.0_Personal-Finance-Products" stroke="none" stroke-width="1" fill="none" fill-rule="evenodd" transform="translate(-1077.000000, -739.000000)">
        <g id="Group" transform="translate(998.000000, 739.000000)" fill-rule="nonzero">
            <g id="scholarship" transform="translate(79.000000, 0.000000)">
                <path d="M66.0923695,16.1465116 C65.2705271,15.4891473 46.0386486,0.0684754522 34.1214548,0.0684754522 C22.204261,0.0684754522 2.97238243,15.4891473 2.15054005,16.1465116 C1.83555297,16.4067183 1.64368475,16.803876 1.64368475,17.2147287 C1.64368475,17.6255814 1.83541602,18.022739 2.15054005,18.2829457 C2.35596641,18.4472868 3.73944444,19.5565891 5.87642636,21.1178295 L5.87642636,28.9788114 L5.87642636,29.6087855 L0.438242894,36.4289406 C0.246511628,36.6754522 0.136813953,36.9767442 0.136813953,37.2780362 L0.136813953,51.5620155 C0.136813953,52.3152455 0.753229974,52.9315245 1.5065969,52.9315245 L12.862155,52.9315245 C13.615522,52.9315245 14.231938,52.3152455 14.231938,51.5620155 L14.231938,37.2917313 C14.231938,36.9904393 14.1360724,36.6891473 13.9443411,36.4426357 L8.60216021,29.6224806 L8.60216021,28.2529716 L8.60216021,23.0762274 C10.6842248,24.5142119 13.1224987,26.1165375 15.7388088,27.6503876 L15.7388088,43.8379845 C15.7388088,44.3857881 16.0537959,44.8651163 16.5469561,45.0842377 C16.9853359,45.275969 27.4778295,49.9186047 33.4227313,50.0281654 C33.5733773,50.0281654 33.7103282,50.0418605 33.8611111,50.0418605 C40.737416,50.0418605 52.4628786,45.3170543 52.9697339,45.0979328 C53.4902842,44.8925065 53.8189664,44.3857881 53.8189664,43.8242894 L53.8189664,26.8149871 C60.4076744,22.8023256 65.6402946,18.6116279 66.0511473,18.2692506 C66.3799664,18.0090439 66.5580026,17.6118863 66.5580026,17.2010336 C66.5580026,16.7901809 66.4074935,16.4067183 66.0923695,16.1465116 Z M11.5198992,37.7573643 L11.5198992,50.1925065 L2.90390698,50.1925065 L2.90390698,37.7710594 L7.25990439,32.3067183 L11.5198992,37.7573643 Z M51.1343178,42.9067183 L51.1206227,42.9067183 C48.2441059,44.0160207 38.7924393,47.4671835 33.5325659,47.3028424 L33.5188708,47.3028424 C29.0122274,47.2206718 21.0674315,44.0160207 18.5195969,42.9341085 L18.5195969,29.1842377 C23.8206925,32.0465116 29.5327778,34.3609819 34.1351499,34.3609819 C39.1486486,34.3609819 45.4496227,31.6356589 51.1343178,28.4310078 L51.1343178,42.9067183 Z M34.1214548,31.6219638 C24.8753514,31.6219638 9.83499225,20.7069767 5.24631525,17.2147287 C9.8351292,13.7224806 24.8754884,2.80749354 34.1214548,2.80749354 C43.3674212,2.80749354 58.4079173,13.7224806 62.9965943,17.2147287 C58.4079173,20.7206718 43.3675581,31.6219638 34.1214548,31.6219638 Z" id="Shape" fill="#4A4A4A"></path>
                <path d="M5.78042377,37.2917313 C5.78042377,38.0449612 6.41053488,38.6886305 7.25976744,38.6886305 C8.01313437,38.6886305 8.64324548,38.0449612 8.64324548,37.2917313 C8.64324548,36.4289406 8.01313437,35.7852713 7.25976744,35.7852713 C6.42422997,35.7852713 5.78042377,36.4289406 5.78042377,37.2917313 Z" id="Shape" fill="#4A4A4A"></path>
                <path d="M32.7242817,7.23100775 L32.7242817,10.4082687 C30.8476434,11.0245478 29.6832868,12.873385 29.9710207,14.9002584 C30.1490568,16.9408269 31.9572196,18.5431525 34.1214548,18.5842377 C34.9022119,18.6527132 35.4638475,19.1731266 35.6007984,19.9537468 C35.6281886,20.6248062 35.1487235,21.2684755 34.4364419,21.4875969 C33.6556848,21.7341085 32.8064522,21.4465116 32.3954625,20.7754522 C31.998168,20.1317829 31.1489354,19.9400517 30.5051292,20.3509044 C29.861323,20.748062 29.6695917,21.5971576 30.0804444,22.2408269 C30.6968605,23.2268734 31.6556537,23.8842377 32.7378398,24.1718346 L32.7378398,27.1984496 C32.7378398,27.9516796 33.3542558,28.5679587 34.1076227,28.5679587 C34.8609897,28.5679587 35.4774057,27.9516796 35.4774057,27.1984496 L35.4774057,24.0348837 C37.3129587,23.3501292 38.5047054,21.5697674 38.3539225,19.679845 C38.3539225,19.6524548 38.3539225,19.6113695 38.3402274,19.5839793 C38.0252403,17.5160207 36.436199,16.0232558 34.3678295,15.8589147 L34.3541344,15.8589147 C34.3404393,15.8589147 34.3267442,15.8589147 34.3267442,15.8589147 C34.3130491,15.8589147 34.299354,15.8589147 34.2719638,15.8589147 C34.2582687,15.8589147 34.2445736,15.8589147 34.2171835,15.8589147 C33.4364264,15.8589147 32.76523,15.3248062 32.7104496,14.6537468 C32.7104496,14.6263566 32.7104496,14.5852713 32.6967545,14.5578811 C32.6008889,13.927907 32.9432661,13.1609819 33.7515504,12.9829457 C33.7926357,12.9692506 33.8337209,12.9692506 33.8748062,12.9555556 C34.5596977,12.7364341 35.3815401,13.1472868 35.7377494,13.8594315 C36.0665685,14.544186 36.8884109,14.8180879 37.5733023,14.4757106 C38.2581938,14.1470284 38.5320956,13.325323 38.1897183,12.6405685 C37.6143876,11.4901809 36.614509,10.6684755 35.4638475,10.3260982 L35.4638475,7.23100775 C35.4638475,6.47777778 34.8474315,5.86149871 34.0940646,5.86149871 C33.3406977,5.86149871 32.7242817,6.47777778 32.7242817,7.23100775 Z" id="Shape" fill="#1C68A5"></path>
            </g>
        </g>
    </g>
</svg>