<svg width="37" height="42" viewBox="0 0 37 42" xmlns="http://www.w3.org/2000/svg" xmlns:xlink="http://www.w3.org/1999/xlink"><title>startup</title><desc>Created using Figma</desc><use xlink:href="#a" transform="translate(10.01 37.47)" fill="#4A4A4A"/><use xlink:href="#b" transform="translate(.02 9.1)" fill="#4A4A4A"/><use xlink:href="#c" transform="translate(.02 9.1)" fill="#4A4A4A"/><use xlink:href="#d" transform="translate(11.31)" fill="#3C92CA"/><g transform="translate(-1489 -1214)"><use xlink:href="#e" transform="translate(1506.3 1233.26)" fill="#2C2F33"/></g><defs><path id="a" d="M15.765 2.77H9.153V.848c0-.47-.377-.847-.847-.847S7.46.376 7.46.847V2.77H.846C.377 2.77 0 3.15 0 3.62s.376.847.847.847h14.927c.47 0 .846-.376.846-.847-.008-.47-.385-.847-.855-.847z"/><path id="b" fill-rule="evenodd" d="M12.908 19.033c.334-2.182 1.976-3.935 4.097-4.43 0 0 .676-.172 1.694-.112 2.463.223 4.464 2.122 4.823 4.55h3.37c-.35-1.282-1.513-2.223-2.908-2.223-.47 0-.846-.376-.846-.847-.002-.47.375-.847.845-.847 2.327 0 4.27 1.694 4.645 3.918h3.62c.47 0 .845.378.845.848s-.376.847-.846.847H1.692v3.73c0 .136.11.247.248.247h32.71c.137 0 .248-.11.248-.248V1.942c0-.137-.11-.248-.248-.248H25.5c-.47 0-.847-.377-.847-.847S25.03 0 25.5 0h9.152c1.07 0 1.942.873 1.942 1.942v22.514c0 1.07-.873 1.942-1.942 1.942H1.942C.872 26.398 0 25.525 0 24.456v-4.62c0-.47.376-.846.847-.846.094 0 .17.017.257.043h6.68c.377-2.224 2.318-3.918 4.645-3.918.47 0 .846.376.846.847 0 .47-.377.847-.847.847-1.387 0-2.56.94-2.91 2.223h3.388zm8.896 0c-.368-1.643-1.83-2.875-3.584-2.875s-3.225 1.232-3.584 2.875h7.168z"/><path id="c" d="M11.976.847c0-.47-.377-.847-.847-.847H1.94C.872 0 0 .873 0 1.942v14.773c0 .47.376.846.847.846.47 0 .847-.375.847-.845V1.942c0-.137.11-.248.248-.248h9.187c.47 0 .846-.377.846-.847z"/><path id="d" d="M10.154 22.84c.47 0 .846-.377.846-.848v-1.634h1.865c.47 0 .847-.376.847-.846v-1.686c0-.573-.162-1.137-.47-1.625l-1.31-2.06c-.127-.197-.187-.428-.187-.66V6.716c0-1.027-.368-2.02-1.044-2.797L7.57.29C7.408.104 7.177 0 6.93 0c-.25 0-.48.11-.643.3L3.19 3.925c-.658.78-1.026 1.762-1.026 2.78v6.724c0 .256-.077.496-.222.7L.547 16.14C.187 16.656 0 17.254 0 17.88v1.634c0 .47.376.846.847.846l1.54.01V22c0 .47.376.848.846.848s.847-.377.847-.847v-1.633l.01-.01c.47.002.846-.375.846-.845s-.377-.847-.847-.847H1.693v-.787c0-.274.085-.54.24-.77l1.393-2.01c.343-.496.522-1.07.522-1.677V6.707c0-.616.222-1.214.615-1.676l2.48-2.883 2.48 2.874c.404.472.626 1.07.626 1.686v6.766c0 .556.155 1.095.454 1.566l1.31 2.06c.136.215.204.463.204.72v.838H9.743c-.47 0-.847.377-.847.847 0 .308.163.573.41.72v1.77c0 .47.386.846.848.846z"/><path id="e" d="M0 .847V4.5c0 .453.342.855.796.88.487.026.898-.36.898-.846V.847C1.694.377 1.317 0 .847 0S0 .376 0 .847z"/></defs></svg>