<svg width="53" height="43" viewBox="0 0 53 43" xmlns="http://www.w3.org/2000/svg" xmlns:xlink="http://www.w3.org/1999/xlink"><title>Group 11</title><desc>Created using Figma</desc><use xlink:href="#a" transform="translate(18)" fill="#1A68A5"/><use xlink:href="#b" transform="translate(27 13)" fill="#1A68A5"/><use xlink:href="#c" transform="translate(20 24)" fill="#1A68A5"/><g transform="translate(-689 -1030)"><mask id="e"><use xlink:href="#d" transform="translate(731.508 1058.39)" fill="#FFF"/></mask><use xlink:href="#f" transform="translate(731.508 1058.39)" fill="#1A68A5" mask="url(#e)"/></g><use xlink:href="#g" transform="translate(44 22)" fill="#1A68A5"/><g transform="translate(-689 -1030)"><mask id="i"><use xlink:href="#h" transform="translate(731.508 1046)" fill="#FFF"/></mask><use xlink:href="#j" transform="translate(731.508 1046)" fill="#1A68A5" mask="url(#i)"/></g><use xlink:href="#k" transform="translate(6 35)" fill="#4A4A4A"/><use xlink:href="#l" transform="translate(0 14.59)" fill="#4A4A4A"/><g transform="translate(-689 -1030)"><use xlink:href="#m" transform="translate(709.44 1033.19)" fill="#1A68A5"/></g><defs><path id="a" fill-rule="evenodd" d="M19.75 1.843h3.47v5.02l-3.47-2.44v-2.58zM5.46 10.05l9.574-6.735 9.574 6.736v3.774c0 .51.388.92.867.92.478.002.867-.41.867-.92V11.27l2.38 1.677c.148.103.314.152.478.152.282 0 .558-.146.724-.413.264-.425.156-.997-.244-1.277l-4.726-3.326V.922c0-.51-.387-.922-.866-.922h-5.204c-.48 0-.867.412-.867.922v2.28L15.513 1.44c-.29-.204-.668-.204-.958 0L.39 11.41c-.4.28-.51.853-.246 1.277.265.425.803.54 1.202.26l2.38-1.675v5.31l1.735.718v-7.25z"/><path id="b" fill-rule="evenodd" d="M1.774 7.316v-5.55h7.45V12h.89c.488 0 .886-.395.886-.882V.883C11 .396 10.602 0 10.113 0H.886C.396 0 0 .396 0 .883l.003 5.505 1.77.928z"/><path id="c" fill-rule="evenodd" d="M0 0l2 .555L0 0z"/><path id="d" fill-rule="evenodd" d="M0 0h1.73v.613H0V0z"/><path id="f" fill-rule="evenodd" d="M1.73 0h-.002L0 .613"/><path id="g" fill-rule="evenodd" d="M0 0v2-2z"/><path id="h" fill-rule="evenodd" d="M0 0h1.728v13.004H0V0z"/><path id="j" fill-rule="evenodd" d="M1.728 8.446v1.387V.876C1.728.393 1.34 0 .864 0S0 .393 0 .876v12.128l1.728-.613V8.447z"/><path id="k" d="M35.933 3.148c-.184-.432-.692-.637-1.134-.456l-7.58 3.092c-1.527.624-3.234.688-4.806.18L4.634.235c-1.12-.36-2.33-.304-3.41.16L.52.696c-.44.188-.64.688-.447 1.117.192.43.703.624 1.142.436l.706-.303c.688-.295 1.46-.33 2.17-.1l17.78 5.73c.88.282 1.79.423 2.7.423 1.13 0 2.258-.218 3.317-.65l7.58-3.093c.44-.18.65-.677.466-1.11z"/><path id="l" d="M52.675 14.967c-.79-1.857-2.747-2.845-4.623-2.434-1.627.473-5.92 2.066-5.92 2.066l-7.593 2.694c-.824.29-1.73.29-2.55 0l-11.113-3.73s-2.15-1.03-1.414-2.672c.735-1.642 3.233-.622 3.233-.622l8.915 3.295c1.726.6 3.647-.246 4.398-1.925 0 0 .788-3.148-.9-4.167-1.685-1.02-5.83-2.504-7.866-3.343-2.034-.84-4.18-1.626-4.18-1.626l-1.726-.67L18.423.7c-.112-.045-.235-.09-.386-.144C14.973-.51 11.48-.024 8.693 1.86L.385 7.472c-.397.268-.505.812-.24 1.214.264.403.8.512 1.198.244L9.65 3.317c2.343-1.583 5.268-1.995 7.827-1.104.125.044.223.08.318.118l15.628 6.08c.464.18.828.536 1.026 1 .203.48.202 1.006-.004 1.482-.38.88-1.378 1.327-2.276 1.015L22.256 8.47c-.79-.276-1.65-.242-2.42.094-.957.418-1.657 1.242-1.923 2.26-.446 1.712.495 3.51 2.145 4.097l11.36 4.028c1.19.42 2.5.42 3.69 0l13.028-4.623c1.16-.413 2.454.16 2.944 1.313.25.6.255 1.252.016 1.844-.24.593-.692 1.056-1.275 1.303l-6.955 2.943c-.44.186-.648.7-.465 1.145.14.336.46.54.798.54.11 0 .223-.023.332-.07l6.956-2.94c1.01-.43 1.795-1.23 2.21-2.258.412-1.027.406-2.155-.02-3.178z"/><path id="m" fill-rule="evenodd" d="M0 .002l.08.026L0 0v.002z"/></defs></svg>