<?xml version="1.0" encoding="UTF-8"?>
<svg width="155px" height="161px" viewBox="0 0 155 161" version="1.1" xmlns="http://www.w3.org/2000/svg" xmlns:xlink="http://www.w3.org/1999/xlink">
    <!-- Generator: Sketch 48.1 (47250) - http://www.bohemiancoding.com/sketch -->
    <title>presentation (1)</title>
    <desc>Created with Sketch.</desc>
    <defs></defs>
    <g id="1.0.0_About-Us" stroke="none" stroke-width="1" fill="none" fill-rule="evenodd" transform="translate(-412.000000, -668.000000)">
        <g id="presentation-(1)" transform="translate(412.000000, 668.000000)" fill-rule="nonzero">
            <path d="M51,63 C38.8697133,63 29,72.868253 29,84.9998471 C29,97.1314412 38.8697133,107 51,107 C63.1302867,107 73,97.1314412 73,84.9998471 C73,72.868253 63.1305925,63 51,63 Z M51,104.555335 C40.2172511,104.555335 31.4446483,95.7826709 31.4446483,84.9998471 C31.4446483,74.2170233 40.2172511,65.4443595 51,65.4443595 C61.7827489,65.4443595 70.5553517,74.2170233 70.5553517,84.9998471 C70.5553517,95.7826709 61.7827489,104.555335 51,104.555335 Z" id="Shape" fill="#1C68A5"></path>
            <path d="M71.777523,89 C71.1020723,89 70.5553517,89.54149 70.5553517,90.2104785 C70.5553517,100.890369 61.7827489,109.579043 51,109.579043 C40.2172511,109.579043 31.4446483,100.890369 31.4446483,90.2104785 C31.4446483,89.54149 30.8979277,89 30.222477,89 C29.5467206,89 29,89.54149 29,90.2104785 C29,102.226227 38.8697133,112 51,112 C63.1302867,112 73,102.225924 73,90.2104785 C73,89.54149 72.4532794,89 71.777523,89 Z" id="Shape" fill="#1C68A5"></path>
            <path d="M30.000125,84 C29.4472795,84 29,84.5218697 29,85.166618 L29,89.8330901 C29,90.4781303 29.4472795,91 30.000125,91 C30.5527204,91 30.9999999,90.4781303 30.9999999,89.8330901 L30.9999999,85.166618 C31.0002501,84.5218697 30.5527204,84 30.000125,84 Z" id="Shape" fill="#1C68A5"></path>
            <path d="M71.9998749,84 C71.4472795,84 71,84.5218697 71,85.166618 L71,89.8330901 C71,90.4781303 71.4472795,91 71.9998749,91 C72.5527205,91 72.9997498,90.4781303 73,89.8330901 L73,85.166618 C72.9997498,84.5218697 72.5524703,84 71.9998749,84 Z" id="Shape" fill="#1C68A5"></path>
            <path d="M50.5001485,76 C45.2619654,76 41,80.26048 41,85.4998515 C41,90.7392229 45.2619654,95 50.5001485,95 C55.7383316,95 60,90.7392229 60,85.4998515 C60,80.26048 55.7386287,76 50.5001485,76 Z M50.5001485,92.6245172 C46.5712141,92.6245172 43.3751857,89.4284888 43.3751857,85.4998515 C43.3751857,81.5712141 46.5712141,78.3751857 50.5001485,78.3751857 C54.4290829,78.3751857 57.6251114,81.5712141 57.6251114,85.4998515 C57.6251114,89.4284888 54.4290829,92.6245172 50.5001485,92.6245172 Z" id="Shape" fill="#1C68A5"></path>
            <path d="M58.9541552,85.714832 C57.8508597,82.3496783 54.3752448,80 50.5000609,80 C46.624877,80 43.1492621,82.3496783 42.0459666,85.714832 C41.8725168,86.2444603 42.2050772,86.8008578 42.7885746,86.9592209 C43.3806204,87.1135811 43.986454,86.8146176 44.1599038,86.2854896 C44.9863413,83.7619371 47.5933283,82.0001787 50.4997851,82.0001787 C53.406242,82.0001787 56.013229,83.7619371 56.8399422,86.2854896 C56.9833348,86.7187991 57.4212336,87 57.8969108,87 C58.0003189,87 58.105933,86.9867405 58.2115472,86.9592209 C58.7947688,86.8008578 59.1273292,86.2442102 58.9541552,85.714832 Z" id="Shape" fill="#1C68A5"></path>
            <path d="M44.6747098,78.1054458 L36.8946798,70.3250842 C36.4612373,69.8916386 35.7590104,69.8916386 35.3252902,70.3250842 C34.8915699,70.7585297 34.8915699,71.4607615 35.3252902,71.8944847 L43.1055978,79.6748464 C43.3224579,79.8914304 43.6062365,80 43.8902927,80 C44.1743489,80 44.4581274,79.8914304 44.6747098,79.6748464 C45.1084301,79.2414009 45.1084301,78.5391691 44.6747098,78.1054458 Z" id="Shape" fill="#1C68A5"></path>
            <path d="M50.9999999,93 C50.4473355,93 50,93.5218588 50,94.1668856 L50,105.833114 C50,106.478141 50.4473355,107 50.9999999,107 C51.5526644,107 52.0002501,106.478141 51.9999999,105.833114 L51.9999999,94.1668856 C51.9999999,93.5218588 51.5526644,93 50.9999999,93 Z" id="Shape" fill="#1C68A5"></path>
            <path d="M73.7778287,4.88868504 L73.0987088,4.88868504 C71.0647125,1.85726 67.6415934,0 64.0001529,0 C57.9342451,0 53,4.93424509 53,11.0001529 C53,17.0657549 57.9342451,22 64.0001529,22 C67.640676,22 71.0637952,20.1430458 73.0987088,17.1110092 L73.7778287,17.1110092 C74.4532794,17.1110092 75,16.5642886 75,15.8888379 L75,6.1108563 C75,5.43540563 74.4532794,4.88868504 73.7778287,4.88868504 Z M72.5556575,14.6663609 L72.4220351,14.6663609 C71.9863097,14.6663609 71.5842194,14.8978304 71.3655923,15.2751532 C69.8318392,17.9154957 67.0092566,19.5553517 64.0001529,19.5553517 C59.2833118,19.5553517 55.4446483,15.716994 55.4446483,11.0001529 C55.4446483,6.28331179 59.283006,2.44464829 64.0001529,2.44464829 C67.056957,2.44464829 69.8092121,4.04383661 71.3643692,6.72484677 C71.5842194,7.10216959 71.9863097,7.33363911 72.4220351,7.33363911 L72.5556575,7.33363911 L72.5556575,14.6663609 Z" id="Shape" fill="#4A4A4A"></path>
            <path d="M84.6485155,7.751426 L82.2490558,5.35154608 C82.0239376,5.12668868 81.7195778,5 81.4008104,5 L74.1997299,5 C73.5366818,5 73,5.53677574 73,6.19993996 L73,15.80006 C73,16.4632243 73.5366818,17 74.1997299,17 L81.4008104,17 C81.7195778,17 82.0239376,16.8733113 82.2490558,16.6481537 L84.6485155,14.2482738 C84.8736337,14.0231162 85,13.7187031 85,13.3998799 L85,8.59981987 C85,8.2809967 84.8736337,7.97658361 84.6485155,7.751426 Z M82.6008404,12.9030321 L80.9043498,14.5998199 L75.40006,14.5998199 L75.40006,7.39987992 L80.9043498,7.39987992 L82.6008404,9.09666767 L82.6008404,12.9030321 Z" id="Shape" fill="#4A4A4A"></path>
            <path d="M79,5 C78.4473355,5 78,5.53677574 78,6.19993996 L78,15.80006 C78,16.4632243 78.4473355,17 79,17 C79.5526645,17 80,16.462924 80,15.80006 L80,6.19993996 C80,5.53677574 79.5529147,5 79,5 Z" id="Shape" fill="#4A4A4A"></path>
            <path d="M71.0175433,10.4996717 L72.6336544,8.99131704 C73.1221152,8.53571689 73.1221152,7.79759212 72.6336544,7.34170011 C72.1455063,6.88609996 71.3546501,6.88609996 70.8661893,7.34170011 L68.3663456,9.67515505 C67.8778848,10.1307552 67.8778848,10.8691718 68.3663456,11.324772 L70.8661893,13.6582269 C71.1104197,13.8858811 71.4303271,14 71.7499218,14 C72.0698293,14 72.3897367,13.8861729 72.6336544,13.6576432 C73.1221152,13.202043 73.1221152,12.4639183 72.6336544,12.0080263 L71.0175433,10.4996717 Z" id="Shape" fill="#4A4A4A"></path>
            <path d="M72.7497263,12 L65.2499609,12 C64.5591519,12 64,12.4473355 64,13 C64,13.5526645 64.5591519,14 65.2499609,14 L72.7497263,14 C73.440848,14 73.9996871,13.5526645 73.9999999,13 C74.0003126,12.4473355 73.440848,12 72.7497263,12 Z" id="Shape" fill="#4A4A4A"></path>
            <path d="M72.7497263,7 L65.2499609,7 C64.5591519,7 64,7.4473355 64,8 C64,8.5526645 64.5591519,9 65.2499609,9 L72.7497263,9 C73.440848,9 73.9999999,8.5526645 73.9999999,8 C74.0003126,7.4473355 73.440848,7 72.7497263,7 Z" id="Shape" fill="#4A4A4A"></path>
            <path d="M88.2499609,10 C87.5591519,10 87,10.5591519 87,11.2502736 C87,11.9410827 87.5591519,12.5002345 88.2499609,12.5002345 C91.6971261,12.5002345 94.5000782,15.3028739 94.5000782,18.7500391 C94.5000782,19.4408481 95.0589173,20 95.7500391,20 C96.4408481,20 97,19.4408481 97,18.7500391 C97.0003127,13.9259468 93.074366,10 88.2499609,10 Z" id="Shape" fill="#4A4A4A"></path>
            <path d="M96,22 C95.4470853,22 95,22.5431737 95,23.2142423 L95,37.7857577 C95,38.4568263 95.4470853,39 96,39 C96.5526645,39 97,38.4568263 97,37.7857577 L97,23.2142423 C97,22.5431737 96.5524143,22 96,22 Z" id="Shape" fill="#4A4A4A"></path>
            <path d="M78.833382,32 L74.166618,32 C73.5218697,32 73,32.5215778 73,33.166618 L73,37.833382 C73,38.4781303 73.5218697,39 74.166618,39 L78.833382,39 C79.4781303,39 80,38.4781303 80,37.8330901 L80,33.166618 C80,32.5215778 79.4784222,32 78.833382,32 Z M77.666764,36.6664721 L75.333236,36.6664721 L75.333236,34.333236 L77.666764,34.333236 L77.666764,36.6664721 Z" id="Shape" fill="#4A4A4A"></path>
            <path d="M141.787082,46 L13.212918,46 C12.5425813,46 12,46.5459904 12,47.2208442 L12,127.779461 C12,128.45401 12.5425813,129 13.212918,129 L141.787082,129 C142.457419,129 143,128.45401 143,127.779461 L143,47.2208442 C143,46.5459904 142.457722,46 141.787082,46 Z M140.574467,126.558617 L14.425836,126.558617 L14.425836,48.441383 L140.574467,48.441383 L140.574467,126.558617 Z" id="Shape" fill="#4A4A4A"></path>
            <path d="M146.784527,37 L8.21547268,37 C7.54372408,37 7,37.5367757 7,38.19994 L7,47.80006 C7,48.4632243 7.54372408,49 8.21547268,49 L146.784527,49 C147.456276,49 148,48.4632243 148,47.80006 L148,38.19994 C148,37.5367757 147.456276,37 146.784527,37 Z M145.569359,46.5998199 L9.43094535,46.5998199 L9.43094535,39.3998799 L145.569359,39.3998799 L145.569359,46.5998199 Z" id="Shape" fill="#4A4A4A"></path>
            <path d="M139.779199,42 L15.2214123,42 C14.5462444,42 14,42.4472795 14,42.9998749 C14,43.5527205 14.5462444,44 15.2214123,44 L139.778588,44 C140.45345,44 141,43.5529706 141,42.9998749 C141.000305,42.4472795 140.454061,42 139.779199,42 Z" id="Shape" fill="#4A4A4A"></path>
            <path d="M111.332911,158.677826 L78.7472378,142.131304 C78.1521195,141.824972 77.4259604,142.073656 77.1276463,142.679573 C76.8296343,143.284878 77.0711841,144.020197 77.6675102,144.324076 L110.253485,160.870599 C110.42559,160.959217 110.609469,161 110.793349,161 C111.236593,161 111.660815,160.751316 111.872775,160.322329 C112.169579,159.717024 111.929841,158.982012 111.332911,158.677826 Z" id="Shape" fill="#4A4A4A"></path>
            <path d="M121.327812,158.668328 L78.7607371,137.13154 C78.1610208,136.823648 77.4292514,137.07612 77.1286325,137.681745 C76.828318,138.289833 77.0717341,139.027852 77.6726674,139.332973 L120.240046,160.870069 C120.413176,160.95905 120.598781,161 120.783777,161 C121.230445,161 121.657945,160.750299 121.871847,160.319557 C122.170944,159.711777 121.92905,158.973758 121.327812,158.668328 Z" id="Shape" fill="#4A4A4A"></path>
            <path d="M120.79976,159 L111.19994,159 C110.536776,159 110,159.447336 110,160 C110,160.552664 110.536776,161 111.19994,161 L120.79976,161 C121.463224,161 122,160.552664 122,160 C122,159.447336 121.463224,159 120.79976,159 Z" id="Shape" fill="#4A4A4A"></path>
            <path d="M78.8722939,142.679573 C78.5730787,142.073656 77.8505539,141.824972 77.2530292,142.131304 L44.6675542,158.677826 C44.0709353,158.982012 43.8296912,159.716718 44.1276987,160.322329 C44.3402592,160.75101 44.7656823,161 45.2086175,161 C45.390079,161 45.573956,160.959524 45.7469634,160.870599 L78.3327403,144.324076 C78.9290572,144.020197 79.1703014,143.285185 78.8722939,142.679573 Z" id="Shape" fill="#4A4A4A"></path>
            <path d="M78.8713072,137.681745 C78.5697801,137.07612 77.8416728,136.823648 77.2395314,137.13154 L34.6727908,158.668328 C34.0718665,158.973758 33.8281498,159.711469 34.1287641,160.319557 C34.3426627,160.749991 34.7713728,161 35.2180345,161 C35.4008981,161 35.5858915,160.959358 35.7608441,160.870069 L78.3275848,139.332973 C78.9285091,139.027852 79.1716172,138.290141 78.8713072,137.681745 Z" id="Shape" fill="#4A4A4A"></path>
            <path d="M44.7997598,159 L35.19994,159 C34.5367757,159 34,159.447336 34,160 C34,160.552664 34.5367757,161 35.19994,161 L44.7997598,161 C45.462924,161 46,160.552664 46,160 C45.9996998,159.447336 45.4626238,159 44.7997598,159 Z" id="Shape" fill="#4A4A4A"></path>
            <path d="M75,127 C74.4473355,127 74,127.544565 74,128.217352 L74,139.782648 C74,140.455435 74.4473355,141 75,141 C75.5529147,141 76,140.455435 76,139.782648 L76,128.217352 C76,127.544565 75.5526645,127 75,127 Z" id="Shape" fill="#4A4A4A"></path>
            <path d="M79.9999999,127 C79.4470853,127 79,127.544565 79,128.217352 L79,139.782648 C79,140.455435 79.4470853,141 79.9999999,141 C80.5526644,141 80.9999999,140.455435 80.9999999,139.782648 L80.9999999,128.217352 C81.0002501,127.544565 80.5526644,127 79.9999999,127 Z" id="Shape" fill="#4A4A4A"></path>
            <path d="M79.9999999,143 C79.4470853,143 79,143.52444 79,144.172363 L79,158.827637 C79,159.47556 79.4470853,160 79.9999999,160 C80.5526644,160 80.9999999,159.47556 80.9999999,158.827637 L80.9999999,144.172363 C81.0002501,143.52444 80.5526644,143 79.9999999,143 Z" id="Shape" fill="#4A4A4A"></path>
            <path d="M79.8333819,159 L75.166618,159 C74.5218696,159 74,159.447336 74,160 C74,160.552664 74.5218696,161 75.166618,161 L79.8333819,161 C80.4781302,161 80.9999999,160.552664 80.9999999,160 C81.0002918,159.447336 80.4781302,159 79.8333819,159 Z" id="Shape" fill="#4A4A4A"></path>
            <path d="M75,143 C74.4473355,143 74,143.52444 74,144.172363 L74,158.827637 C74,159.47556 74.4473355,160 75,160 C75.5529147,160 76,159.47556 76,158.827637 L76,144.172363 C76,143.52444 75.5526645,143 75,143 Z" id="Shape" fill="#4A4A4A"></path>
            <g id="Group-4" transform="translate(1.000000, 69.000000)" fill="#4A4A4A">
                <path d="M7,0 C3.14060545,0 0,3.1406592 0,6.99981237 C0,7.55269248 0.447085314,8 1,8 C1.5526645,8 2,7.55269248 2,6.99981237 C2,4.24191632 4.2429322,1.99987491 7,1.99987491 C7.5526645,1.99987491 8,1.55256739 8,0.999937457 C8,0.447307524 7.5526645,0 7,0 Z" id="Shape"></path>
                <path d="M7,12.0000625 C4.24318239,12.0000625 2,9.75770085 2,6.99996873 C2,6.44732151 1.5526645,6 1,6 C0.447085314,6 0,6.44732151 0,6.99996873 C0,10.8592426 3.14060545,14 7,14 C7.55291469,14 8,13.5529287 8,13.0000313 C8,12.4473841 7.5526645,12.0000625 7,12.0000625 Z" id="Shape"></path>
            </g>
            <path d="M24.8119614,69 L8.18774144,69 C7.53131891,69 7,69.4473355 7,70 C7,70.5526645 7.53131891,71 8.18774144,71 L24.8119614,71 C25.4686811,71 26,70.5529147 26,70 C26,69.4473355 25.4689782,69 24.8119614,69 Z" id="Shape" fill="#4A4A4A"></path>
            <g id="Group-6" transform="translate(146.000000, 56.000000)" fill="#4A4A4A">
                <path d="M7.00003127,6 C6.44713388,6 6.00006254,6.44732151 6.00006254,6.99996873 C6.00006254,9.75795103 3.75770085,12.0000625 0.999968728,12.0000625 C0.447321512,12.0000625 0,12.4473841 0,13.0000313 C0,13.5526785 0.447321512,14 0.999968728,14 C4.85949276,14 8.00025018,10.8594928 8,6.99996873 C8,6.44732151 7.55292867,6 7.00003127,6 Z" id="Shape"></path>
                <path d="M0.999968728,0 C0.447321512,0 0,0.447307524 0,0.999937457 C0,1.55256739 0.447321512,1.99987491 0.999968728,1.99987491 C3.75770085,1.99987491 6.00006254,4.24216649 6.00006254,6.99981237 C6.00006254,7.55269248 6.44713388,8 7.00003127,8 C7.55267849,8 8,7.55269248 8,6.99981237 C7.99974982,3.1406592 4.85949276,0 0.999968728,0 Z" id="Shape"></path>
            </g>
            <path d="M146.832993,68 L135.167299,68 C134.522044,68 134,68.4473355 134,69 C134,69.5526645 134.522044,70 135.167299,70 L146.832993,70 C147.477956,70 148,69.5529147 148,69 C148,68.4473355 147.477956,68 146.832993,68 Z" id="Shape" fill="#4A4A4A"></path>
            <path d="M7,105 C3.14060545,105 0,108.140507 0,112.000031 C0,112.552678 0.447085314,113 1,113 C1.5526645,113 2,112.552678 2,112.000031 C2,109.242299 4.2429322,107.000188 7,107.000188 C7.5526645,107.000188 8,106.552866 8,105.999969 C8,105.447322 7.5526645,105 7,105 Z" id="Shape" fill="#4A4A4A"></path>
            <path d="M24.8119614,105 L8.18774144,105 C7.53131891,105 7,105.44728 7,105.999875 C7,106.55272 7.53131891,107 8.18774144,107 L24.8119614,107 C25.4686811,107 26,106.55272 26,105.999875 C26,105.44728 25.4689782,105 24.8119614,105 Z" id="Shape" fill="#4A4A4A"></path>
            <g id="Group-5" transform="translate(147.000000, 93.000000)" fill="#4A4A4A">
                <path d="M7.00003127,6 C6.44713388,6 6.00006254,6.44732151 6.00006254,6.99996873 C6.00006254,9.75770085 3.75770085,11.9998124 0.999968728,11.9998124 C0.447321512,11.9998124 0,12.4471339 0,12.9997811 C0,13.5526785 0.447321512,14 0.999968728,14 C4.85949276,14 8.00025018,10.8594928 8,6.99996873 C8,6.44732151 7.55292867,6 7.00003127,6 Z" id="Shape"></path>
                <path d="M0.999968728,0 C0.447321512,0 0,0.447321512 0,1.00021891 C0,1.55286612 0.447321512,1.99993746 0.999968728,1.99993746 C3.75770085,1.99993746 6.00006254,4.24229915 6.00006254,7.00003127 C6.00006254,7.55267849 6.44713388,8 7.00003127,8 C7.55267849,8 8,7.55267849 8,7.00003127 C7.99974982,3.14075742 4.85949276,0 0.999968728,0 Z" id="Shape"></path>
            </g>
            <path d="M147.785584,105 L116.214416,105 C115.543251,105 115,105.44728 115,105.999875 C115,106.55272 115.543251,107 116.214416,107 L147.785584,107 C148.456749,107 149,106.55272 149,105.999875 C149,105.44728 148.456749,105 147.785584,105 Z" id="Shape" fill="#4A4A4A"></path>
            <path d="M124.789211,69 L81.2104865,69 C80.5414936,69 80,69.4473355 80,70 C80,70.5526645 80.5414936,71 81.2104865,71 L124.789816,71 C125.458809,71 126.000303,70.5529147 126,70 C125.999697,69.4473355 125.458506,69 124.789211,69 Z" id="Shape" fill="#1C68A5"></path>
            <path d="M124.789211,76 L81.2104865,76 C80.5414936,76 80,76.4470294 80,76.9998749 C80,77.5527205 80.5414936,78 81.2104865,78 L124.789816,78 C125.458809,78 126,77.5524703 126,76.9998749 C126,76.4472795 125.458506,76 124.789211,76 Z" id="Shape" fill="#1C68A5"></path>
            <path d="M124.789211,83 L81.2104865,83 C80.5414936,83 80,83.4473355 80,84 C80,84.5529147 80.5414936,85 81.2104865,85 L124.789816,85 C125.458809,85 126.000303,84.5529147 126,84 C125.999697,83.4473355 125.458506,83 124.789211,83 Z" id="Shape" fill="#1C68A5"></path>
            <path d="M124.789211,90 L81.2104865,90 C80.5414936,90 80,90.4473355 80,91.0002502 C80,91.5529147 80.5414936,92 81.2104865,92 L124.789816,92 C125.458809,92 126.000303,91.5529147 126,91.0002502 C125.999697,90.4473355 125.458506,90 124.789211,90 Z" id="Shape" fill="#1C68A5"></path>
            <path d="M124.789211,97 L81.2104865,97 C80.5414936,97 80,97.4473355 80,98 C80,98.5526645 80.5414936,99 81.2104865,99 L124.789816,99 C125.458809,99 126,98.5526645 126,98 C125.999697,97.4473355 125.458506,97 124.789211,97 Z" id="Shape" fill="#1C68A5"></path>
            <path d="M105.773062,105 L81.2272448,105 C80.5489902,105 80,105.44728 80,105.999875 C80,106.55272 80.5489902,107 81.2272448,107 L105.773062,107 C106.451317,107 107,106.55272 107,105.999875 C107.000307,105.44728 106.451624,105 105.773062,105 Z" id="Shape" fill="#1C68A5"></path>
            <path d="M1,112 C0.447085314,112 0,112.547662 0,113.224962 L0,159.775038 C0,160.452031 0.447085314,161 1,161 C1.5526645,161 2,160.452031 2,159.775038 L2,113.224962 C2,112.547662 1.5526645,112 1,112 Z" id="Shape" fill="#4A4A4A"></path>
        </g>
    </g>
</svg>