<?xml version="1.0" encoding="UTF-8"?>
<svg width="169px" height="161px" viewBox="0 0 169 161" version="1.1" xmlns="http://www.w3.org/2000/svg" xmlns:xlink="http://www.w3.org/1999/xlink">
    <!-- Generator: Sketch 48.1 (47250) - http://www.bohemiancoding.com/sketch -->
    <title>bulb</title>
    <desc>Created with Sketch.</desc>
    <defs></defs>
    <g id="1.0.0_About-Us" stroke="none" stroke-width="1" fill="none" fill-rule="evenodd" transform="translate(-868.000000, -668.000000)">
        <g id="bulb" transform="translate(868.000000, 668.000000)" fill-rule="nonzero">
            <path d="M106.597145,129.297157 L61.8533027,129.297157 C61.1260041,129.297157 60.537317,129.885515 60.537317,130.613143 L60.537317,149.037601 C60.537317,149.386928 60.6759284,149.72111 60.9228609,149.968043 L66.1871329,155.231986 C66.4337362,155.478918 66.7679182,155.617859 67.1175746,155.617859 L101.333202,155.617859 C101.68253,155.617859 102.016712,155.478918 102.263644,155.231986 L107.527587,149.968043 C107.77419,149.72111 107.913131,149.387258 107.913131,149.037601 L107.913131,130.613143 C107.913131,129.885515 107.322139,129.297157 106.597145,129.297157 Z M105.28116,148.492703 L100.788305,152.985558 L67.6624724,152.985558 L63.1692883,148.492703 L63.1692883,131.929129 L105.28116,131.929129 L105.28116,148.492703 Z" id="Shape" fill="#4A4A4A"></path>
            <path d="M109.157342,134.563734 L59.1518609,137.195706 C58.4271963,137.234227 57.8694581,137.853863 57.9079796,138.578528 C57.9438671,139.280474 58.5249816,139.825043 59.2213313,139.825043 C59.2443783,139.825043 59.2674254,139.825043 59.2908016,139.822409 L109.296282,137.190438 C110.021276,137.151916 110.581319,136.532609 110.540164,135.807945 C110.504276,135.082951 109.89781,134.458376 109.157342,134.563734 Z" id="Shape" fill="#4A4A4A"></path>
            <path d="M109.157342,142.459648 L59.1518609,145.091949 C58.4271963,145.13047 57.8694581,145.749777 57.9079796,146.474771 C57.9438671,147.176389 58.5249816,147.721286 59.2213313,147.721286 C59.2443783,147.721286 59.2674254,147.721286 59.2908016,147.718652 L109.296282,145.086681 C110.021276,145.04816 110.581319,144.428524 110.540164,143.703859 C110.504276,142.979194 109.89781,142.375033 109.157342,142.459648 Z" id="Shape" fill="#4A4A4A"></path>
            <path d="M84.226047,39.8068384 C59.5528793,39.8068384 39.4808875,59.8791595 39.4808875,84.551998 C39.4808875,100.095247 47.3386094,114.208922 60.537317,122.454822 L60.537317,130.613143 C60.537317,131.340442 61.1260041,131.929129 61.8533027,131.929129 L106.597145,131.929129 C107.322139,131.929129 107.913131,131.340442 107.913131,130.613143 L107.913131,122.454822 C121.109534,114.208922 128.96956,100.095247 128.96956,84.551998 C128.96956,59.8788303 108.895264,39.8068384 84.226047,39.8068384 Z M105.918575,120.590975 C105.522824,120.830335 105.28116,121.259669 105.28116,121.719622 L105.28116,129.297157 L63.1699468,129.297157 L63.1699468,121.719622 C63.1699468,121.259339 62.9282822,120.830335 62.5325317,120.590975 C49.7473538,112.885035 42.1131881,99.4110798 42.1131881,84.5516687 C42.1131881,61.3311227 61.005501,42.4388098 84.2263763,42.4388098 C107.445605,42.4388098 126.337918,61.3311227 126.337918,84.5516687 C126.337918,99.4110798 118.703753,112.885035 105.918575,120.590975 Z" id="Shape" fill="#4A4A4A"></path>
            <path d="M96.6655194,153.137339 C96.0228364,152.808425 95.2313354,153.06293 94.8971534,153.70298 C94.7993681,153.888014 92.414,158.25016 84.2263763,158.25016 C76.0473129,158.25016 73.6566769,153.900855 73.553953,153.70298 C73.2273436,153.060297 72.4460491,152.800853 71.7931595,153.124499 C71.1429039,153.450779 70.8804969,154.239646 71.2044724,154.890231 C71.3276094,155.1342 74.3145051,160.881802 84.226047,160.881802 C94.136272,160.881802 97.1228384,155.1342 97.2466339,154.890231 C97.5702802,154.244914 97.3082025,153.466254 96.6655194,153.137339 Z" id="Shape" fill="#4A4A4A"></path>
            <path d="M27.6363579,83.235683 L1.31598569,83.235683 C0.588357873,83.235683 0,83.8243701 0,84.5516687 C0,85.2792965 0.588357873,85.8676544 1.31598569,85.8676544 L27.6363579,85.8676544 C28.3639857,85.8676544 28.9526728,85.2792965 28.9526728,84.5516687 C28.9526728,83.8243701 28.3639857,83.235683 27.6363579,83.235683 Z" id="Shape" fill="#4A4A4A"></path>
            <path d="M167.134791,83.235683 L140.81409,83.235683 C140.084157,83.235683 139.498104,83.8243701 139.498104,84.5516687 C139.498104,85.2792965 140.084157,85.8676544 140.81409,85.8676544 L167.134791,85.8676544 C167.859785,85.8676544 168.450777,85.2792965 168.450777,84.5516687 C168.450777,83.8243701 167.859456,83.235683 167.134791,83.235683 Z" id="Shape" fill="#4A4A4A"></path>
            <path d="M36.3576851,112.188356 C35.9951881,111.558513 35.1882127,111.337591 34.5610041,111.707661 L11.7615603,124.868176 C11.132047,125.230673 10.9160634,126.035014 11.2811943,126.664857 C11.5225297,127.086288 11.9673374,127.322685 12.4197178,127.322685 C12.643274,127.322685 12.8694642,127.266384 13.0778753,127.145223 L35.8769898,113.985037 C36.5068323,113.62254 36.7224867,112.817869 36.3576851,112.188356 Z" id="Shape" fill="#4A4A4A"></path>
            <path d="M157.161681,42.4388098 C156.801818,41.8063333 155.994513,41.5903497 155.367634,41.9581145 L132.578397,55.1183006 C131.946249,55.4807975 131.730266,56.2851391 132.095067,56.9149816 C132.337061,57.3367423 132.784174,57.5731391 133.236554,57.5731391 C133.457806,57.5731391 133.683996,57.5165092 133.894382,57.3956769 L156.68362,44.2354908 C157.310499,43.8729939 157.526483,43.0683231 157.161681,42.4388098 Z" id="Shape" fill="#4A4A4A"></path>
            <path d="M126.337589,11.6120838 C125.705112,11.2446483 124.898137,11.4629366 124.538274,12.0927791 L111.383027,34.886955 C111.018225,35.5167975 111.234209,36.3211391 111.866356,36.683636 C112.072133,36.8044683 112.297994,36.8610982 112.524513,36.8610982 C112.976894,36.8610982 113.419067,36.6243722 113.660403,36.2029407 L126.81565,13.4087648 C127.180781,12.7789223 126.964798,11.9745808 126.337589,11.6120838 Z" id="Shape" fill="#4A4A4A"></path>
            <path d="M85.5420327,1.64160736 C85.5420327,0.914308793 84.9533456,0.325621677 84.226047,0.325621677 C83.4984192,0.325621677 82.9097321,0.914308793 82.9097321,1.64160736 L82.915,27.9573701 C82.915,28.6846687 83.5036871,29.2733558 84.2313149,29.2733558 C84.9586135,29.2733558 85.5473006,28.6846687 85.5473006,27.9573701 L85.5420327,1.64160736 Z" id="Shape" fill="#4A4A4A"></path>
            <path d="M57.0753231,34.8816871 L43.9148078,12.0927791 C43.5523108,11.4606319 42.7453354,11.2472822 42.1181268,11.6120838 C41.4882843,11.9745808 41.2726299,12.7789223 41.6374315,13.4087648 L54.7979468,36.1976728 C55.0392822,36.6194335 55.48409,36.8558303 55.9364703,36.8558303 C56.1600266,36.8558303 56.3862168,36.7992004 56.5946278,36.6783681 C57.2244703,36.3158712 57.4401247,35.5115297 57.0753231,34.8816871 Z" id="Shape" fill="#4A4A4A"></path>
            <path d="M156.688888,124.863237 L133.894712,111.702722 C133.267832,111.33792 132.455589,111.553575 132.095397,112.183417 C131.730595,112.81293 131.946579,113.617601 132.578726,113.980098 L155.372902,127.140613 C155.57835,127.261117 155.80454,127.317746 156.03073,127.317746 C156.48311,127.317746 156.925284,127.08135 157.166949,126.659918 C157.53208,126.030076 157.315767,125.225734 156.688888,124.863237 Z" id="Shape" fill="#4A4A4A"></path>
            <path d="M35.8769898,55.1080941 L13.0880818,41.9528466 C12.4608732,41.5903497 11.6538978,41.8036994 11.2914008,42.4335419 C10.9265992,43.0630552 11.1422536,43.867726 11.7720961,44.2302229 L34.5610041,57.3854703 C34.7694151,57.5063027 34.9956053,57.5629325 35.2191616,57.5629325 C35.6715419,57.5629325 36.1160204,57.3262065 36.3576851,56.9047751 C36.7224867,56.2749325 36.5068323,55.470591 35.8769898,55.1080941 Z" id="Shape" fill="#4A4A4A"></path>
            <path d="M84.2234131,58.2312965 C69.7110245,58.2312965 57.9027117,70.0396094 57.9027117,84.551998 C57.9027117,99.0643865 69.7110245,110.872699 84.2234131,110.872699 C98.7367894,110.872699 110.545102,99.0640573 110.545102,84.551998 C110.545102,70.0396094 98.7367894,58.2312965 84.2234131,58.2312965 Z M84.2234131,108.24007 C71.160683,108.24007 60.534683,97.6143988 60.534683,84.5516687 C60.534683,71.4889387 71.160683,60.8632679 84.2234131,60.8632679 C97.2874601,60.8632679 107.913131,71.4889387 107.913131,84.5516687 C107.913131,97.6143988 97.2874601,108.24007 84.2234131,108.24007 Z" id="Shape" fill="#1C68A5"></path>
            <path d="M105.095796,80.3228671 C105.455988,80.0812025 105.897832,79.6367239 106.082867,78.8527955 C106.452937,78.5442945 107.481164,77.9812883 108.103434,77.9016115 L107.763984,75.2900532 C106.628094,75.4365665 103.738654,76.6369877 103.672147,78.1149611 C103.317223,78.2357935 102.083548,77.9016115 101.415184,77.7241493 C99.69818,77.2638671 97.7553149,76.7472843 96.7063456,78.1712618 C96.1663865,78.9090961 96.1716544,79.9448957 96.72182,80.9395399 C97.4978466,82.3431043 99.4463088,83.7440348 102.685076,83.8210777 C102.345626,84.6537342 101.610425,86.1112945 100.135086,88.6481145 L99.8677403,89.1057628 C99.1019202,90.4270164 98.8447812,91.7917301 98.5981779,93.1129836 C98.3924008,94.2208875 98.1918916,95.2695276 97.7036237,96.1667157 C97.2719857,96.9503149 96.5983538,97.639092 95.8838957,98.3690245 C95.5088875,98.7548978 95.1332209,99.1401125 94.7888323,99.5437648 C93.4316912,101.11689 92.4650327,101.941973 91.051591,101.826409 C90.455002,101.775047 90.0902004,100.554213 89.9614663,100.032362 C89.6582331,98.8194294 89.5604479,97.564683 89.4577239,96.2358569 C89.3447935,94.7295685 89.2213272,93.1722474 88.7893599,91.6043906 C87.7048323,87.6715787 84.3027607,87.6689448 81.8173027,87.6689448 L81.0797975,87.6663108 C78.4988589,87.6379959 76.9619509,86.1116237 76.8641656,83.4743845 C76.771319,80.9734519 77.4116973,79.0378303 78.7662045,77.7165767 C80.3340613,76.1898753 82.3776748,75.9455767 82.7734254,75.9893661 C86.3796278,76.6218425 87.3189591,76.9326483 87.5553558,77.0613824 C89.8788262,78.3411513 92.2437812,77.6754213 93.5597669,76.7192986 C94.6495624,75.9248344 95.1891922,74.8814622 94.9992188,73.909865 C94.4335787,71.138953 84.1252986,69.9026442 84.0248793,69.8950716 C83.546818,69.859184 83.0608548,69.9517014 82.5393333,70.0442188 C82.321045,70.082411 81.984229,70.1416748 81.7116155,70.1699898 C81.7577096,70.0801063 81.8222413,69.9800164 81.9019182,69.8746585 C83.6936605,67.5149714 86.4309898,66.4304438 89.3289898,65.2840184 C90.4652086,64.831638 91.6010982,64.3818916 92.7527914,63.8215194 C93.5854479,63.3559693 94.125407,61.5388753 94.1510879,61.4618323 L91.6267791,60.7164254 C91.5135194,61.0943967 91.3544949,61.4312127 91.2412352,61.626454 C90.3055256,62.0659939 89.3339284,62.4489039 88.3626605,62.8344479 C85.2536155,64.065818 82.0408589,65.3380143 79.7993701,68.2886933 C78.776411,69.6537362 78.6710532,71.0931881 79.5346585,72.0545787 C80.4805746,73.0854397 81.9407689,72.8230327 83.0048834,72.6330593 C83.2929714,72.5843313 83.6551391,72.4786442 83.8326012,72.5224335 C86.0941738,72.684092 90.4859509,73.7844233 92.0949632,74.5271963 C91.9049898,74.6789775 91.6323763,74.8462331 91.2777812,74.9720041 C90.7019346,75.1725133 89.812319,75.3035521 88.8305153,74.7586544 C88.1213252,74.3655378 86.4958507,73.9724213 83.1155092,73.3758323 C82.3651636,73.2470982 79.609726,73.4913967 77.2911943,75.4987935 C75.8082822,76.7838303 74.0731697,79.2284622 74.2325235,83.5721697 C74.3839755,87.6156074 77.0597362,90.2551513 81.0491779,90.2989407 L81.8176319,90.3015746 C84.6349673,90.3015746 85.7451759,90.4764029 86.2515521,92.3066667 C86.619317,93.6305542 86.7243456,94.9952679 86.8349714,96.4399877 C86.9442802,97.8178712 87.0519427,99.2415194 87.4068671,100.665826 C88.1367996,103.616505 89.6737076,104.351376 90.8254008,104.449162 C91.000229,104.464636 91.1645215,104.472209 91.3291431,104.472209 C93.7968221,104.472209 95.4315153,102.82698 96.7833885,101.263403 C97.0915603,100.901235 97.4313395,100.556847 97.7701309,100.209495 C98.5777648,99.3847403 99.4104213,98.5313415 100.011949,97.4310102 C100.705994,96.167045 100.947658,94.8609366 101.184055,93.5963129 C101.39971,92.4449489 101.605487,91.3548241 102.145446,90.4243824 L102.407524,89.972002 C105.378945,84.8772904 106.026566,83.0704029 105.301902,81.9164049 C104.96772,81.3892863 104.360924,81.1324765 103.734045,81.1607914 C101.70854,81.3277178 100.505155,80.8703988 99.8525951,80.4667464 C99.5440941,80.2744683 99.3333783,80.0762638 99.189499,79.9040695 C99.6619632,79.9811125 100.299708,80.1506728 100.736613,80.2665665 C102.299202,80.685364 103.918751,81.1146973 105.095796,80.3228671 Z" id="Shape" fill="#1C68A5"></path>
            <path d="M68.3795644,95.771953 C68.1714826,89.3922045 65.056182,84.9609182 59.6042413,83.2929714 L58.8331534,85.811683 C61.4703926,86.6160245 63.3803333,88.1713701 64.5086503,90.4280041 C66.6856074,94.78982 65.4338241,100.591417 65.1124826,101.47807 L66.3155378,101.996957 L66.7807587,103.228327 C68.4361943,102.603423 68.3821984,95.8407648 68.3795644,95.771953 Z" id="Shape" fill="#1C68A5"></path>
            <path d="M84.2234131,47.7027526 C63.904818,47.7027526 47.3744969,64.2327444 47.3744969,84.5516687 C47.3744969,85.2792965 47.963184,85.8676544 48.6904826,85.8676544 C49.4177812,85.8676544 50.0064683,85.2792965 50.0064683,84.5516687 C50.0064683,65.6850368 65.3567812,50.3347239 84.2234131,50.3347239 C84.9507117,50.3347239 85.5393988,49.7460368 85.5393988,49.0187382 C85.5393988,48.2914397 84.9507117,47.7027526 84.2234131,47.7027526 Z" id="Shape" fill="#1C68A5"></path>
        </g>
    </g>
</svg>