<svg width="42" height="42" viewBox="0 0 42 42" xmlns="http://www.w3.org/2000/svg" xmlns:xlink="http://www.w3.org/1999/xlink"><title>blueprint</title><desc>Created using Figma</desc><use xlink:href="#a" transform="translate(32.308 32.31)" fill="#4A4A4A"/><use xlink:href="#b" transform="translate(9.692 7.11)" fill="#4A4A4A"/><use xlink:href="#c" fill="#4A4A4A"/><use xlink:href="#d" transform="translate(11.63 10.98)" fill="#1C68A5"/><defs><path id="a" fill-rule="evenodd" d="M0 3.554C0 1.594 1.594 0 3.554 0c1.96 0 3.554 1.594 3.554 3.554 0 1.96-1.595 3.554-3.554 3.554C1.594 7.108 0 5.513 0 3.554zm1.422 0c0 1.175.956 2.132 2.132 2.132 1.175 0 2.132-.957 2.132-2.132 0-1.176-.957-2.132-2.132-2.132-1.176 0-2.132.956-2.132 2.132z"/><path id="b" fill-rule="evenodd" d="M30.903 1.396v23.276c.877 1.08 1.405 2.448 1.405 3.94 0 3.462-2.836 6.28-6.32 6.28-1.502 0-2.88-.524-3.966-1.395H1.405C.59 33.497 0 32.91 0 32.1v-6.977c0-.81.59-1.396 1.405-1.396h16.153c.39 0 .703.312.703.698v1.395c0 .386-.313.698-.702.698-.388 0-.702-.312-.702-.698v-.697H15.45l.002 2.093c0 .385-.315.698-.703.698-.39 0-.703-.313-.703-.698v-2.093h-1.405v.697c0 .386-.314.698-.702.698-.388 0-.702-.312-.702-.698v-.697H9.833v.697c0 .386-.315.698-.703.698-.387 0-.702-.312-.702-.698v-.697H7.023v.697c0 .386-.314.698-.702.698-.387 0-.7-.312-.7-.698v-.697H4.213v2.093c0 .385-.315.698-.702.698-.388 0-.703-.313-.703-.698v-2.093H1.404V32.1h19.33c-.675-.998-1.07-2.198-1.07-3.488 0-3.463 2.836-6.28 6.322-6.28 1.3 0 2.506.39 3.51 1.06V1.397h-7.022v1.396h2.107c.388 0 .702.312.702.697 0 .385-.314.697-.702.697h-2.107v1.396h.702c.39 0 .703.313.703.698 0 .386-.314.7-.703.7h-.702v1.394h.702c.39 0 .703.313.703.698 0 .385-.314.698-.703.698h-.702v1.396h.702c.39 0 .703.312.703.697 0 .386-.314.698-.703.698h-.702v1.397h2.107c.388 0 .702.313.702.698 0 .385-.314.698-.702.698h-2.107v1.395h.702c.39 0 .703.313.703.698 0 .385-.314.698-.703.698h-.702v1.396h.702c.39 0 .703.312.703.698 0 .385-.314.697-.703.697h-1.404c-.39 0-.703-.312-.703-.697V1.396C21.07.626 21.7 0 22.475 0h7.023c.775 0 1.405.626 1.405 1.396zM21.07 28.612c0 2.693 2.206 4.885 4.917 4.885 2.71 0 4.916-2.192 4.916-4.885 0-2.694-2.206-4.885-4.916-4.885-2.71 0-4.917 2.19-4.917 4.885z"/><path id="c" fill-rule="evenodd" d="M35.49 4.2c.384 0 .695.314.695.7 0 .386-.31.7-.696.7H8.35v32.2c0 .386-.312.7-.696.7-.384 0-.695-.314-.695-.7 0-1.544-1.25-2.8-2.785-2.8-1.535 0-2.783 1.256-2.783 2.8 0 1.544 1.248 2.8 2.783 2.8h3.48c.384 0 .695.314.695.7 0 .386-.31.7-.696.7h-3.48C1.875 42 0 40.116 0 37.8V4.2C0 1.884 1.873 0 4.175 0 6.478 0 8.35 1.884 8.35 4.2h27.14zM4.174 33.6c1.07 0 2.044.41 2.784 1.078V4.2c0-1.544-1.25-2.8-2.785-2.8-1.535 0-2.783 1.256-2.783 2.8v30.478c.74-.668 1.713-1.078 2.783-1.078z"/><path id="d" fill-rule="evenodd" d="M15.4 8.75v6.053c0 .39-.313.705-.7.705H9.8c-.387 0-.7-.316-.7-.705v-3.525H7.7v3.525c0 .39-.313.705-.7.705H2.1c-.387 0-.7-.316-.7-.705V8.75l-.205.207c-.274.276-.716.276-.99 0-.273-.275-.273-.72 0-.997l1.4-1.41 6.3-6.343c.274-.276.716-.276.99 0l6.3 6.343 1.4 1.41c.273.276.273.722 0 .997-.137.138-.316.207-.495.207-.18 0-.36-.07-.495-.207L15.4 8.75zM10.5 14.1H14V7.34L8.4 1.703l-5.6 5.64v6.756h3.5v-3.525c0-.39.313-.704.7-.704h2.8c.387 0 .7.314.7.704v3.524z"/></defs></svg>