<svg width="42" height="42" viewBox="0 0 42 42" xmlns="http://www.w3.org/2000/svg" xmlns:xlink="http://www.w3.org/1999/xlink"><title>dollar-symbol (1)</title><desc>Created using Figma</desc><use xlink:href="#a" transform="translate(17.1 29.67)" fill="#4A4A4A"/><use xlink:href="#b" transform="translate(17.1)" fill="#4A4A4A"/><use xlink:href="#c" transform="translate(29.674 17.1)" fill="#4A4A4A"/><use xlink:href="#d" transform="translate(0 17.1)" fill="#4A4A4A"/><use xlink:href="#e" transform="translate(26.878 26.88)" fill="#4A4A4A"/><use xlink:href="#f" transform="translate(5.014 5.01)" fill="#4A4A4A"/><use xlink:href="#g" transform="translate(26.87 5.01)" fill="#4A4A4A"/><use xlink:href="#h" transform="translate(5.014 26.88)" fill="#4A4A4A"/><use xlink:href="#i" transform="translate(16.98 13.75)" fill="#3C92CA"/><defs><path id="a" fill-rule="evenodd" d="M3.026.85c0-.473.377-.85.848-.85.472 0 .85.377.85.85v3.78c1.73.384 3.025 1.927 3.025 3.77 0 2.134-1.74 3.874-3.876 3.874C1.74 12.274 0 10.534 0 8.4c0-1.843 1.294-3.386 3.026-3.77V.85zm.848 9.736c1.2 0 2.177-.977 2.177-2.177 0-1.2-.976-2.18-2.176-2.18-1.2 0-2.177.98-2.177 2.18 0 1.2.977 2.176 2.177 2.176z"/><path id="b" fill-rule="evenodd" d="M4.723 11.426c0 .47-.377.848-.85.848-.47 0-.847-.377-.847-.848v-3.78C1.294 7.26 0 5.716 0 3.874 0 1.74 1.74 0 3.874 0 6.01 0 7.75 1.74 7.75 3.874c0 1.843-1.296 3.386-3.027 3.772v3.78zm-.85-9.737c-1.2 0-2.176.976-2.176 2.176 0 1.2.977 2.177 2.177 2.177 1.2 0 2.177-.977 2.177-2.177 0-1.2-.976-2.177-2.176-2.177z"/><path id="c" fill-rule="evenodd" d="M8.4 7.75c-1.843 0-3.386-1.296-3.77-3.027H.85c-.473 0-.85-.377-.85-.85 0-.47.377-.847.85-.847h3.78C5.013 1.294 6.556 0 8.4 0c2.134 0 3.874 1.74 3.874 3.874 0 2.135-1.74 3.875-3.874 3.875zm.01-6.053c-1.2 0-2.18.977-2.18 2.177 0 1.2.98 2.177 2.18 2.177 1.2 0 2.176-.976 2.176-2.176 0-1.2-.977-2.177-2.177-2.177z"/><path id="d" fill-rule="evenodd" d="M3.874 7.75C1.74 7.75 0 6.01 0 3.873 0 1.74 1.73 0 3.874 0 5.717 0 7.26 1.294 7.646 3.026h3.78c.47 0 .848.377.848.848 0 .472-.377.85-.848.85h-3.78c-.386 1.73-1.93 3.025-3.772 3.025zm-.008-1.7c1.2 0 2.177-.976 2.177-2.176 0-1.2-.977-2.177-2.177-2.177-1.2 0-2.177.977-2.177 2.177 0 1.2.976 2.177 2.176 2.177z"/><path id="e" fill-rule="evenodd" d="M.25 1.452c-.334-.334-.334-.866 0-1.2.326-.335.866-.335 1.2-.01l2.675 2.675c.61-.385 1.32-.6 2.066-.6 1.03 0 2.006.403 2.735 1.132 1.51 1.508 1.51 3.967 0 5.476-.73.73-1.697 1.13-2.734 1.13-1.028.002-2.005-.4-2.734-1.13-.728-.728-1.13-1.697-1.13-2.734 0-.737.205-1.45.6-2.066L.25 1.452zm5.94 2.57c-.574 0-1.122.224-1.534.635-.41.412-.642.952-.634 1.543 0 .575.223 1.123.634 1.535.412.41.952.634 1.535.634.575 0 1.124-.224 1.535-.635.85-.85.85-2.23 0-3.078-.41-.41-.95-.634-1.534-.634z"/><path id="f" fill-rule="evenodd" d="M3.866 0C4.894 0 5.87.403 6.6 1.13c.737.73 1.14 1.7 1.13 2.736 0 .737-.204 1.448-.6 2.065l2.676 2.676c.334.334.334.865 0 1.2-.163.163-.386.248-.6.248-.215 0-.437-.085-.6-.248L5.93 7.13c-.607.387-1.32.6-2.064.6-1.03 0-2.006-.4-2.735-1.13C.404 5.87 0 4.903 0 3.866 0 2.836.403 1.86 1.13 1.13 1.86.404 2.83 0 3.867 0zm0 6.034c.574 0 1.123-.223 1.534-.634.41-.41.643-.95.634-1.534 0-.575-.223-1.123-.634-1.535-.41-.41-.95-.633-1.534-.633-.575 0-1.123.223-1.535.634-.41.404-.633.96-.633 1.536 0 .574.223 1.123.634 1.534.413.41.953.634 1.536.634z"/><path id="g" fill-rule="evenodd" d="M2.925 5.94c-.386-.61-.6-1.32-.6-2.066 0-1.037.403-2.005 1.14-2.743C4.195.404 5.162 0 6.2 0c1.028 0 2.005.403 2.734 1.13 1.508 1.51 1.508 3.97 0 5.48-.73.727-1.698 1.13-2.735 1.13-.738 0-1.45-.206-2.066-.6L1.45 9.814c-.162.163-.385.25-.6.25-.214 0-.436-.087-.6-.25-.334-.334-.334-.865 0-1.2L2.926 5.94zM6.2 1.706c-.575 0-1.124.223-1.535.634-.41.403-.643.95-.634 1.543 0 .574.224 1.123.635 1.534.41.41.95.634 1.534.634.574 0 1.122-.222 1.534-.633.848-.848.848-2.228 0-3.077-.412-.41-.952-.634-1.535-.634z"/><path id="h" fill-rule="evenodd" d="M8.606.25c.334-.334.865-.334 1.2 0 .334.326.334.866 0 1.192L7.13 4.116c.953 1.5.773 3.506-.53 4.81-.73.728-1.697 1.13-2.734 1.13-1.03 0-2.006-.402-2.735-1.13C.404 8.195 0 7.227 0 6.19c0-1.028.403-2.005 1.13-2.734.73-.728 1.7-1.13 2.736-1.13.737 0 1.448.205 2.065.6L8.607.25zm-4.74 8.11c.574 0 1.123-.224 1.534-.635.85-.84.85-2.22 0-3.07-.41-.41-.95-.633-1.534-.633-.575 0-1.123.223-1.535.634-.41.412-.633.952-.633 1.535 0 .575.223 1.123.634 1.535.413.41.953.634 1.536.634z"/><path id="i" d="M3.01 8.057h1.96c.72 0 1.304.583 1.304 1.312 0 .72-.583 1.3-1.303 1.3H1.44c-.47 0-.85.38-.85.85s.38.85.85.85h1.706v1.233c0 .47.377.848.848.848.472 0 .85-.376.85-.847V12.37h.136c1.654 0 3.01-1.347 3.01-3 0-1.656-1.347-3.01-3.01-3.01H3.017c-.72 0-1.303-.583-1.303-1.303s.583-1.303 1.303-1.303H6.48c.47 0 .85-.377.85-.848 0-.472-.38-.85-.85-.85H4.843V.85c0-.473-.377-.85-.85-.85-.47 0-.847.377-.847.85v1.207H3.01C1.353 2.057 0 3.403 0 5.067c.01 1.644 1.354 2.99 3.01 2.99z"/></defs></svg>