<svg width="64" height="64" viewBox="0 0 64 64" xmlns="http://www.w3.org/2000/svg" xmlns:xlink="http://www.w3.org/1999/xlink"><title>icn-earthglobal</title><desc>Created using Figma</desc><use xlink:href="#a" transform="translate(53.61 13.212)" fill="#1C68A5"/><use xlink:href="#b" transform="translate(53.61 33.88)" fill="#1C68A5"/><use xlink:href="#c" transform="translate(33.88 53.606)" fill="#1C68A5"/><use xlink:href="#d" transform="translate(13.21 53.606)" fill="#1C68A5"/><use xlink:href="#e" transform="translate(2.88 33.88)" fill="#1C68A5"/><use xlink:href="#f" transform="translate(2.88 13.212)" fill="#1C68A5"/><use xlink:href="#g" transform="translate(13.21 3.35)" fill="#1C68A5"/><use xlink:href="#h" transform="translate(33.88 3.35)" fill="#1C68A5"/><use xlink:href="#i" transform="translate(11.33 11.333)" fill="#1C68A5"/><use xlink:href="#j" transform="translate(36.23 12.273)" fill="#1C68A5"/><use xlink:href="#k" transform="translate(16.97 12.273)" fill="#1C68A5"/><use xlink:href="#l" transform="translate(34.82 13.682)" fill="#1C68A5"/><use xlink:href="#m" transform="translate(24.95 13.682)" fill="#1C68A5"/><use xlink:href="#n" transform="translate(12.27 25.424)" fill="#1C68A5"/><use xlink:href="#n" transform="translate(12.27 38.576)" fill="#1C68A5"/><use xlink:href="#o" transform="translate(32 14.62)" fill="#1C68A5"/><use xlink:href="#p" transform="translate(27.3 11.333)" fill="#1C68A5"/><use xlink:href="#q" transform="translate(27.3 49.38)" fill="#1C68A5"/><use xlink:href="#r" transform="translate(30.12 1)" fill="#1C68A5"/><use xlink:href="#s" transform="translate(30.12 59.242)" fill="#1C68A5"/><use xlink:href="#t" transform="translate(59.24 30.12)" fill="#1C68A5"/><use xlink:href="#u" transform="translate(1 30.12)" fill="#1C68A5"/><use xlink:href="#v" transform="translate(9.45 50.788)" fill="#1C68A5"/><use xlink:href="#w" transform="translate(50.79 9.455)" fill="#1C68A5"/><use xlink:href="#r" transform="translate(9.45 9.455)" fill="#1C68A5"/><use xlink:href="#x" transform="translate(50.79 50.788)" fill="#1C68A5"/><defs><path id="a" d="M7.794 16.863C7.378 10.233 4.668 4.213.564-.494l-1.13.988c3.972 4.53 6.488 10.098 6.863 16.46l1.497-.09z"/><path id="b" d="M.56 17.407C4.668 12.775 7.378 6.677 7.794.047L6.297-.047C5.92 6.32 3.407 11.962-.56 16.41l1.12.997z"/><path id="c" d="M.045 7.794C6.675 7.384 12.775 4.7 17.41.558L16.408-.558C11.962 3.44 6.32 5.925-.045 6.297l.09 1.497z"/><path id="d" d="M-.504.556c4.638 4.19 10.742 6.823 17.367 7.238l.092-1.497C10.585 5.92 4.945 3.487.505-.556L-.506.556z"/><path id="e" d="M-.75.046c.417 6.63 3.128 12.73 7.235 17.361l1.12-.996C3.64 11.963 1.126 6.32.75-.045l-1.5.092z"/><path id="f" d="M6.482-.495c-4.06 4.632-6.74 10.726-7.23 17.35l1.496.108c.45-6.37 2.937-12.02 6.86-16.468l-1.126-.99z"/><path id="g" d="M16.863-.75C10.313-.332 4.215 2.377-.494 6.48l.988 1.13C5.022 3.64 10.668 1.124 16.954.75l-.09-1.5z"/><path id="h" d="M17.407 6.485C12.775 2.378 6.677-.333.047-.75L-.047.75c6.365.374 12.008 2.888 16.457 6.856l.997-1.12z"/><path id="i" d="M6.065 6.065l.53.53.002-.003-.532-.527zm0 29.204l.53-.532-.003-.002-.527.533zm29.204 0l-.532-.532-.002.003.533.53zm.53-29.736c-8.378-8.377-21.966-8.38-30.268.003l1.065 1.055c7.713-7.788 20.347-7.792 28.14.003l1.062-1.06zm-30.266 0c-8.377 8.378-8.38 21.965.003 30.268l1.055-1.066c-7.788-7.713-7.792-20.346.003-28.14l-1.06-1.062zm0 30.265c8.378 8.377 21.965 8.38 30.268-.003l-1.066-1.056c-7.713 7.79-20.346 7.793-28.14-.002l-1.062 1.06zm30.265 0c8.378-8.38 8.378-21.887 0-30.266l-1.062 1.06c7.794 7.794 7.794 20.35 0 28.144l1.06 1.06z"/><path id="j" d="M.304 39.67c6.315-2.797 10.78-10.82 10.78-20.178h-1.5c0 8.97-4.28 16.323-9.888 18.807l.608 1.37zm10.78-20.178c0-9.273-4.38-17.38-10.784-20.18L-.3.688c5.68 2.482 9.883 9.907 9.883 18.805h1.5z"/><path id="k" d="M10.03-.686C3.714 2.11-.75 10.134-.75 19.492h1.5c0-8.97 4.28-16.323 9.887-18.806L10.03-.686zM-.75 19.492c0 9.273 4.38 17.38 10.7 20.18l.608-1.373C4.956 35.817.75 28.39.75 19.49h-1.5z"/><path id="l" d="M.63 36.574c2.327-3.595 3.878-10.6 3.878-18.49h-1.5c0 7.785-1.544 14.44-3.638 17.675l1.26.814zm3.878-18.49C4.508 10.19 2.958 3.187.63-.41L-.63.408c2.094 3.234 3.638 9.89 3.638 17.675h1.5z"/><path id="m" d="M3.128-.407C.8 3.195-.75 10.213-.75 18.123h1.5C.75 10.32 2.294 3.648 4.388.406l-1.26-.814zM-.75 18.123c0 7.828 1.477 14.766 3.8 18.444l1.268-.8C2.22 32.443.75 25.848.75 18.12h-1.5z"/><path id="n" d="M0 .75h38.985v-1.5H0v1.5z"/><path id="o" d="M-.75.002l.094 34.288 1.5-.004L.75-.002l-1.5.004z"/><path id="p" d="M8.924.474h.75v-.606L9.08-.26l-.156.734zM0 .474L-.157-.26-.75-.13v.606H0zM9.08-.26c-3.026-.644-6.21-.644-9.237 0l.314 1.467c2.87-.62 5.74-.62 8.61 0L9.08-.26zM-.75.475c0 1.3.784 2.22 1.778 2.776.98.548 2.232.793 3.437.788 1.206-.006 2.456-.262 3.432-.81.988-.556 1.777-1.47 1.777-2.754h-1.5c0 .57-.326 1.06-1.012 1.445-.696.39-1.678.613-2.703.618-1.027.004-2.006-.21-2.7-.597C1.082 1.56.75 1.07.75.475h-1.5z"/><path id="q" d="M0 2.818h-.75v.608l.594.126L0 2.818zm8.924 0l.156.734.594-.126v-.608h-.75zm-9.08.734c3.027.638 6.21.638 9.236 0l-.312-1.467c-2.87.614-5.74.614-8.612 0l-.312 1.467zm9.83-.734c0-1.307-.78-2.233-1.778-2.79C6.913-.52 5.66-.76 4.456-.75c-1.193.015-2.493.304-3.43.824C.042.63-.75 1.54-.75 2.818h1.5c0-.56.324-1.05 1.013-1.438C2.5.955 3.43.755 4.47.75c1.024-.01 2.002.2 2.694.588.675.377 1.01.87 1.01 1.48h1.5z"/><path id="r" d="M1.88 4.508c1.45 0 2.628-1.177 2.628-2.63h-1.5c0 .624-.506 1.13-1.13 1.13v1.5zm2.628-2.63C4.508.43 3.33-.75 1.878-.75v1.5c.624 0 1.13.505 1.13 1.13h1.5zM1.878-.75C.43-.75-.75.427-.75 1.88h1.5c0-.625.505-1.13 1.13-1.13v-1.5zM-.75 1.88c0 1.45 1.177 2.628 2.63 2.628v-1.5c-.625 0-1.13-.506-1.13-1.13h-1.5z"/><path id="s" d="M4.508 1.88c0-1.477-1.153-2.63-2.63-2.63v1.5c.65 0 1.13.48 1.13 1.13h1.5zM1.878-.75C.404-.75-.75.403-.75 1.88h1.5c0-.65.48-1.13 1.13-1.13v-1.5zM-.75 1.88c0 1.475 1.153 2.628 2.63 2.628v-1.5c-.65 0-1.13-.482-1.13-1.13h-1.5zm2.63 2.628c1.496 0 2.628-1.256 2.628-2.63h-1.5c0 .588-.502 1.13-1.13 1.13v1.5z"/><path id="t" d="M0 1.88h.75H0zm1.88 2.628c1.475 0 2.628-1.153 2.628-2.63h-1.5c0 .65-.482 1.13-1.13 1.13v1.5zm2.628-2.63C4.508.404 3.355-.75 1.878-.75v1.5c.65 0 1.13.48 1.13 1.13h1.5zM1.878-.75C.404-.75-.75.403-.75 1.88h1.5c0-.65.48-1.13 1.13-1.13v-1.5zM-.75 1.88c0 1.475 1.153 2.628 2.63 2.628v-1.5c-.65 0-1.13-.482-1.13-1.13h-1.5z"/><path id="u" d="M1.88 4.508c1.475 0 2.628-1.153 2.628-2.63h-1.5c0 .65-.482 1.13-1.13 1.13v1.5zm2.628-2.63C4.508.404 3.355-.75 1.878-.75v1.5c.65 0 1.13.48 1.13 1.13h1.5zM1.878-.75C.404-.75-.75.403-.75 1.88h1.5c0-.65.48-1.13 1.13-1.13v-1.5zM-.75 1.88c0 1.475 1.153 2.628 2.63 2.628v-1.5c-.65 0-1.13-.482-1.13-1.13h-1.5z"/><path id="v" d="M3.212.545l.53-.53L3.728 0 3.715-.01l-.502.557zM.015.015c-1.02 1.02-1.02 2.707 0 3.727l1.06-1.06c-.434-.435-.434-1.172 0-1.606L.016.016zm0 3.727c1.02 1.02 2.707 1.02 3.727 0l-1.06-1.06c-.435.434-1.172.434-1.606 0l-1.06 1.06zm3.727 0c1.02-1.02 1.02-2.707 0-3.727l-1.06 1.06c.434.435.434 1.172 0 1.607l1.06 1.06zM3.714-.012C2.637-.982 1.05-1.02.014.015l1.062 1.06c.42-.42 1.095-.457 1.634.028L3.714-.012z"/><path id="w" d="M.545.545l-.5-.557L.028 0 .014.016l.53.53zm-.53-.53c-1.02 1.02-1.02 2.707 0 3.727l1.06-1.06c-.434-.435-.434-1.172 0-1.606L.016.016zm0 3.727c1.02 1.02 2.707 1.02 3.727 0l-1.06-1.06c-.435.434-1.172.434-1.606 0l-1.06 1.06zm3.727 0c1.02-1.02 1.02-2.707 0-3.727l-1.06 1.06c.434.435.434 1.172 0 1.607l1.06 1.06zm0-3.727C2.708-1.02 1.122-.982.044-.012l1.003 1.115c.54-.485 1.215-.447 1.635-.027l1.06-1.06z"/><path id="x" d="M3.742.015c-1.02-1.02-2.707-1.02-3.727 0l1.06 1.06c.435-.434 1.172-.434 1.607 0l1.06-1.06zm-3.727 0c-1.02 1.02-1.02 2.707 0 3.727l1.06-1.06c-.434-.435-.434-1.172 0-1.606L.016.016zm0 3.727c1.02 1.02 2.707 1.02 3.727 0l-1.06-1.06c-.435.434-1.172.434-1.606 0l-1.06 1.06zm3.727 0c1.02-1.02 1.02-2.707 0-3.727l-1.06 1.06c.434.435.434 1.172 0 1.607l1.06 1.06z"/></defs></svg>