<svg width="44" height="44" viewBox="0 0 44 44" xmlns="http://www.w3.org/2000/svg" xmlns:xlink="http://www.w3.org/1999/xlink"><title>house (1)</title><desc>Created using Figma</desc><use xlink:href="#a" fill="#4A4A4A"/><use xlink:href="#b" transform="translate(23.47 5.13)" fill="#1C68A5"/><use xlink:href="#c" transform="translate(20.53 28.6)" fill="#4A4A4A"/><use xlink:href="#d" transform="translate(0 8.07)" fill="#4A4A4A"/><defs><path id="a" fill-rule="evenodd" d="M30.8 0c-7.278 0-13.2 5.922-13.2 13.2 0 3.376 1.285 6.45 3.377 8.786L17.6 25.363l-.948-.948c-.277-.277-.722-.288-1.01-.026L1.243 37.414C.454 38.13 0 39.153 0 40.22 0 42.303 1.695 44 3.78 44c1.067 0 2.09-.454 2.804-1.245L19.61 28.36c.262-.29.252-.735-.025-1.012l-.948-.948 3.377-3.377c2.336 2.092 5.41 3.377 8.786 3.377 7.278 0 13.2-5.922 13.2-13.2S38.078 0 30.8 0zM5.497 41.77c-.438.486-1.063.763-1.717.763-1.276 0-2.313-1.038-2.313-2.314 0-.654.278-1.28.76-1.717l13.88-12.558 1.948 1.947-12.558 13.88zm13.57-28.57c0 6.47 5.264 11.733 11.733 11.733 6.47 0 11.733-5.264 11.733-11.733 0-6.47-5.264-11.733-11.733-11.733-6.47 0-11.733 5.264-11.733 11.733z"/><path id="b" fill-rule="evenodd" d="M13.2 4.967V.734C13.2.33 12.872 0 12.467 0H9.533C9.128 0 8.8.33 8.8.735v.323L7.82.185c-.278-.247-.696-.247-.974 0l-6.6 5.867c-.157.14-.246.34-.246.55v8.065c0 .405.328.733.733.733h13.2c.406 0 .734-.328.734-.733V6.6c0-.21-.09-.41-.247-.548L13.2 4.967zm-6.6 8.967v-3.667h1.467v3.667H6.6zm2.933 0H13.2V6.93l-1.22-1.085c-.157-.14-.247-.34-.247-.548v-3.83h-1.466V2.69c0 .288-.17.55-.433.668-.265.118-.57.072-.788-.12L7.333 1.714 1.467 6.93v7.004h3.666v-4.4c0-.405.328-.733.734-.733H8.8c.406 0 .733.33.733.734v4.4z"/><path id="c" fill-rule="evenodd" d="M12.467 0H9.533C9.128 0 8.8.33 8.8.735v.323L7.82.185c-.278-.247-.696-.247-.974 0l-6.6 5.867c-.157.14-.246.34-.246.55v8.065c0 .405.328.733.733.733h13.2c.406 0 .734-.328.734-.733V6.6c0-.21-.09-.41-.247-.548L13.2 4.967V.734C13.2.33 12.872 0 12.467 0zM6.6 13.935v-3.667h1.467v3.667H6.6zm2.933 0H13.2V6.93l-1.22-1.085c-.157-.14-.247-.34-.247-.548v-3.83h-1.466V2.69c0 .288-.17.55-.433.668-.264.118-.572.07-.788-.12L7.333 1.714 1.467 6.93v7.004h3.666v-4.4c0-.405.328-.733.734-.733H8.8c.406 0 .733.33.733.734v4.4z"/><path id="d" fill-rule="evenodd" d="M.733 15.4h13.2c.406 0 .734-.328.734-.733V6.6c0-.21-.09-.41-.247-.548L13.2 4.967V.734C13.2.33 12.872 0 12.467 0H9.533C9.128 0 8.8.33 8.8.735v.323L7.82.185c-.278-.247-.696-.247-.974 0l-6.6 5.867c-.157.14-.246.34-.246.55v8.065c0 .405.328.733.733.733zM6.6 13.934v-3.667h1.467v3.667H6.6zm.733-12.22L1.467 6.93v7.004h3.666v-4.4c0-.405.328-.733.734-.733H8.8c.406 0 .733.33.733.734v4.4H13.2V6.93l-1.22-1.085c-.157-.14-.247-.34-.247-.548v-3.83h-1.466V2.69c0 .288-.17.55-.433.668s-.572.072-.788-.12L7.333 1.714z"/></defs></svg>