<svg width="39" height="42" viewBox="0 0 39 42" xmlns="http://www.w3.org/2000/svg" xmlns:xlink="http://www.w3.org/1999/xlink"><title>office-block</title><desc>Created using Figma</desc><use xlink:href="#a" transform="translate(.07)" fill="#4A4A4A"/><use xlink:href="#b" transform="translate(27.62 14.7)" fill="#3C92CA"/><use xlink:href="#c" transform="translate(27.62 18.96)" fill="#3C92CA"/><use xlink:href="#c" transform="translate(27.62 23.21)" fill="#3C92CA"/><use xlink:href="#c" transform="translate(27.62 27.47)" fill="#3C92CA"/><use xlink:href="#b" transform="translate(27.62 31.72)" fill="#3C92CA"/><use xlink:href="#c" transform="translate(27.62 35.98)" fill="#3C92CA"/><use xlink:href="#d" transform="translate(4.85 4.74)" fill="#4A4A4A"/><use xlink:href="#d" transform="translate(9.46 4.74)" fill="#4A4A4A"/><use xlink:href="#e" transform="translate(14.07 4.74)" fill="#4A4A4A"/><use xlink:href="#d" transform="translate(18.68 4.74)" fill="#4A4A4A"/><use xlink:href="#f" transform="translate(4.85 10.54)" fill="#4A4A4A"/><use xlink:href="#f" transform="translate(9.46 10.54)" fill="#4A4A4A"/><use xlink:href="#g" transform="translate(14.07 10.54)" fill="#4A4A4A"/><use xlink:href="#f" transform="translate(18.68 10.54)" fill="#4A4A4A"/><use xlink:href="#d" transform="translate(4.85 16.35)" fill="#4A4A4A"/><use xlink:href="#d" transform="translate(9.46 16.35)" fill="#4A4A4A"/><use xlink:href="#e" transform="translate(14.07 16.35)" fill="#4A4A4A"/><use xlink:href="#d" transform="translate(18.68 16.35)" fill="#4A4A4A"/><use xlink:href="#h" transform="translate(4.85 22.17)" fill="#4A4A4A"/><use xlink:href="#h" transform="translate(9.46 22.17)" fill="#4A4A4A"/><use xlink:href="#i" transform="translate(14.07 22.17)" fill="#4A4A4A"/><use xlink:href="#h" transform="translate(18.68 22.17)" fill="#4A4A4A"/><use xlink:href="#d" transform="translate(4.85 27.97)" fill="#4A4A4A"/><use xlink:href="#d" transform="translate(9.46 27.97)" fill="#4A4A4A"/><use xlink:href="#e" transform="translate(14.07 27.97)" fill="#4A4A4A"/><use xlink:href="#d" transform="translate(18.68 27.97)" fill="#4A4A4A"/><use xlink:href="#f" transform="translate(4.85 33.77)" fill="#4A4A4A"/><use xlink:href="#f" transform="translate(9.46 33.77)" fill="#4A4A4A"/><use xlink:href="#g" transform="translate(14.07 33.77)" fill="#4A4A4A"/><use xlink:href="#f" transform="translate(18.68 33.77)" fill="#4A4A4A"/><defs><path id="a" fill-rule="evenodd" d="M38.083 10.397H25.09V.85c0-.473-.38-.85-.85-.85H.85C.376 0 0 .377 0 .85v40.284c0 .472.377.85.85.85H38.082c.47 0 .848-.378.848-.85V11.246c0-.472-.376-.85-.847-.85zm-14.69.85l-.002 29.047H1.698V1.697H23.39l.002 9.55zm1.696 29.04h12.144v-28.2H25.09v28.2z"/><path id="b" d="M.85 1.697h5.527c.472 0 .85-.377.85-.848 0-.473-.378-.85-.85-.85H.85C.376 0 0 .377 0 .85c0 .46.377.847.85.847z"/><path id="c" d="M.85 1.697h5.527c.472 0 .85-.377.85-.848 0-.473-.378-.85-.85-.85H.85C.376 0 0 .377 0 .85c0 .47.377.847.85.847z"/><path id="d" d="M.85 3.574c.47 0 .847-.377.847-.848V.85C1.697.376 1.32 0 .85 0 .376 0 0 .377 0 .85v1.876c0 .47.377.848.85.848z"/><path id="e" d="M.85 3.574c.47 0 .847-.377.847-.848V.85C1.697.376 1.32 0 .85 0 .376 0 0 .377 0 .85v1.876c0 .47.386.848.85.848z"/><path id="f" d="M.85 3.583c.47 0 .847-.377.847-.85V.85C1.697.376 1.32 0 .85 0 .376 0 0 .377 0 .85v1.884c0 .463.377.85.85.85z"/><path id="g" d="M.85 3.583c.47 0 .847-.377.847-.85V.85C1.697.376 1.32 0 .85 0 .376 0 0 .377 0 .85v1.884c0 .463.386.85.85.85z"/><path id="h" d="M.85 3.574c.47 0 .847-.377.847-.848V.85C1.697.376 1.32 0 .85 0 .376 0 0 .377 0 .85v1.876c0 .463.377.848.85.848z"/><path id="i" d="M.85 3.574c.47 0 .847-.377.847-.848V.85C1.697.376 1.32 0 .85 0 .376 0 0 .377 0 .85v1.876c0 .463.386.848.85.848z"/></defs></svg>