<svg width="43" height="42" viewBox="0 0 43 42" xmlns="http://www.w3.org/2000/svg" xmlns:xlink="http://www.w3.org/1999/xlink"><title>settings</title><desc>Created using Figma</desc><use xlink:href="#a" transform="translate(0 9.55)" fill="#4A4A4A"/><use xlink:href="#b" transform="translate(9.26 18.81)" fill="#4A4A4A"/><use xlink:href="#c" transform="translate(17.3 .02)" fill="#3C92CA"/><use xlink:href="#d" transform="translate(24.75 7.45)" fill="#3C92CA"/><defs><path id="a" d="M21.618 32.27l2.117-.874c1.132-.466 1.668-1.77 1.2-2.895l-.543-1.312c1.063-.787 1.988-1.72 2.783-2.783l1.313.544c.545.224 1.15.224 1.694 0 .545-.225.977-.657 1.2-1.202l.883-2.117c.466-1.13-.07-2.427-1.2-2.894l-1.946-.804c-.442-.18-.934.026-1.116.467-.18.44.026.932.467 1.114l1.945.803c.26.104.38.407.277.666l-.88 2.117c-.053.12-.148.225-.278.276-.12.052-.26.052-.39 0l-1.943-.803c-.38-.156-.812-.026-1.036.31-.873 1.315-1.98 2.42-3.293 3.294-.336.224-.474.665-.32 1.037l.805 1.944c.104.26-.017.553-.277.665l-2.117.873c-.12.052-.258.052-.388 0-.12-.052-.224-.147-.276-.276l-.804-1.945c-.156-.38-.553-.596-.96-.51-1.538.31-3.11.303-4.65 0-.396-.077-.802.14-.958.51l-.804 1.945c-.103.26-.406.38-.665.276l-2.117-.88c-.12-.053-.225-.148-.277-.278-.05-.12-.05-.26 0-.39l.805-1.943c.155-.38.026-.812-.31-1.037-1.315-.873-2.42-1.98-3.294-3.293-.224-.337-.664-.475-1.036-.32l-1.944.804c-.13.05-.26.05-.39 0-.12-.053-.224-.148-.276-.277l-.873-2.118c-.05-.12-.05-.26 0-.39.053-.12.148-.223.278-.275l1.944-.804c.38-.155.588-.553.51-.96-.31-1.537-.302-3.11 0-4.648.078-.398-.138-.804-.51-.96l-1.944-.803c-.26-.104-.38-.406-.277-.666l.883-2.118c.104-.26.406-.38.665-.277l1.945.804c.38.155.812.025 1.037-.312.873-1.314 1.98-2.42 3.292-3.293.337-.224.476-.665.32-1.037l-.804-1.944c-.05-.12-.05-.26 0-.39.052-.12.147-.224.277-.275l2.117-.874c.12-.052.26-.052.39 0 .12.052.224.147.276.276l.803 1.945c.183.44.684.648 1.116.466.44-.18.648-.682.467-1.114l-.804-1.946c-.226-.544-.658-.976-1.202-1.2C12.24.06 11.956 0 11.67 0c-.284 0-.578.06-.846.173l-2.117.873c-.545.224-.977.656-1.2 1.2-.226.545-.226 1.15 0 1.695l.543 1.314c-1.063.787-1.988 1.72-2.783 2.783l-1.313-.544c-1.132-.467-2.43.07-2.895 1.2l-.89 2.118c-.468 1.133.068 2.43 1.2 2.896l1.313.545c-.19 1.306-.19 2.628 0 3.933l-1.313.544c-.545.225-.977.657-1.2 1.2-.226.546-.226 1.15 0 1.695l.87 2.117c.226.544.658.976 1.203 1.2.544.225 1.15.225 1.693 0l1.314-.544c.786 1.063 1.72 1.988 2.783 2.783l-.545 1.313c-.224.544-.224 1.15 0 1.693.225.545.657.977 1.202 1.202l2.117.88c1.132.468 2.428-.068 2.895-1.2l.544-1.314c1.305.19 2.627.19 3.932 0l.545 1.314c.225.544.657.976 1.2 1.2.546.226 1.15.226 1.695 0z"/><path id="b" d="M0 7.01c.026 3.818 3.146 6.904 6.957 6.904h.052c1.857-.018 3.603-.752 4.907-2.075 1.305-1.323 2.014-3.077 2.005-4.935 0-.467-.39-.847-.855-.847h-.01c-.474 0-.854.39-.846.864.01 1.4-.526 2.722-1.51 3.725-.986 1.002-2.3 1.556-3.7 1.564h-.034C4.088 12.21 1.736 9.88 1.72 7c-.017-2.895 2.316-5.263 5.21-5.29.476 0 .857-.388.848-.863C7.778.38 7.388 0 6.922 0h-.008C3.068.026-.026 3.172 0 7.01z"/><path id="c" fill-rule="evenodd" d="M11.693 0h1.668c1.012 0 1.84.83 1.85 1.85v.855c.83.225 1.625.553 2.368.985l.605-.605c.345-.354.812-.544 1.305-.544.492 0 .96.2 1.305.545l1.175 1.176c.717.718.717 1.893 0 2.61l-.605.605c.432.744.76 1.54.985 2.368h.856c1.02 0 1.85.83 1.85 1.85v1.668c0 1.02-.83 1.85-1.85 1.85h-.856c-.225.83-.553 1.625-.985 2.368l.605.605c.717.717.717 1.892 0 2.61l-1.175 1.175c-.346.354-.813.544-1.305.544-.493 0-.96-.198-1.305-.544l-.605-.605c-.743.432-1.538.76-2.368.985v.856c0 1.02-.83 1.85-1.85 1.85h-1.667c-1.02 0-1.85-.83-1.85-1.85v-.856c-.83-.225-1.624-.553-2.368-.985l-.605.605c-.345.354-.812.544-1.305.544-.492 0-.96-.198-1.304-.544l-1.175-1.175c-.354-.346-.544-.813-.544-1.305 0-.493.2-.96.545-1.305l.605-.605c-.432-.743-.76-1.538-.985-2.368H1.85C.83 15.21 0 14.38 0 13.36v-1.667c0-1.02.83-1.85 1.85-1.85h.855c.225-.83.553-1.624.985-2.368l-.605-.605c-.354-.345-.544-.812-.544-1.305 0-.492.2-.96.545-1.304L4.26 3.086c.346-.354.813-.544 1.305-.544.493 0 .96.2 1.305.545l.605.605c.744-.432 1.54-.76 2.368-.985V1.85c0-1.02.83-1.85 1.85-1.85zM17.7 5.626c-.165 0-.33-.052-.476-.147-.925-.623-1.954-1.047-3.043-1.263-.405-.078-.69-.432-.69-.838V1.85c0-.078-.06-.14-.138-.14h-1.668c-.078 0-.138.062-.138.14V3.36c0 .406-.294.76-.692.838-1.088.216-2.117.64-3.042 1.262-.337.233-.795.18-1.08-.104l-1.08-1.08c-.035-.035-.07-.043-.095-.043-.026 0-.06.008-.095.043L4.287 5.453c-.035.035-.044.07-.044.095 0 .026.01.06.043.095l1.08 1.08c.286.286.33.744.104 1.08-.622.925-1.045 1.954-1.26 3.043-.08.406-.433.69-.84.69H1.84c-.077 0-.137.062-.137.14v1.667c0 .078.06.138.138.138h1.53c.407 0 .76.295.84.693.215 1.09.638 2.117 1.26 3.042.234.337.182.795-.103 1.08l-1.08 1.08c-.035.035-.044.07-.044.095 0 .026.01.06.043.095l1.176 1.176c.034.035.07.044.095.044.026 0 .06-.01.095-.043l1.08-1.08c.285-.285.743-.328 1.08-.103.925.622 1.953 1.045 3.042 1.262.407.076.692.43.692.837v1.53c0 .077.06.138.138.138h1.668c.078 0 .138-.06.138-.14v-1.528c0-.406.294-.76.69-.838 1.09-.218 2.12-.64 3.044-1.263.337-.234.795-.182 1.08.103l1.08 1.098c.035.035.07.043.095.043.025 0 .06-.008.094-.042l1.175-1.175c.05-.052.05-.14 0-.19l-1.08-1.08c-.286-.286-.33-.744-.105-1.08.623-.926 1.046-1.954 1.262-3.043.078-.406.432-.69.838-.69h1.53c.078 0 .138-.062.138-.14v-1.667c0-.078-.06-.14-.138-.14h-1.53c-.406 0-.76-.293-.838-.69-.216-1.09-.64-2.117-1.262-3.042-.233-.336-.18-.794.104-1.08l1.08-1.08c.05-.05.05-.138 0-.19l-1.176-1.175c-.034-.034-.07-.043-.095-.043-.027 0-.06.01-.096.043l-1.08 1.08c-.164.164-.38.25-.605.25z"/><path id="d" fill-rule="evenodd" d="M5.08 10.163C2.28 10.163 0 7.88 0 5.08S2.28 0 5.08 0c2.8 0 5.083 2.28 5.083 5.08 0 2.8-2.282 5.083-5.082 5.083zm-.007-1.71c1.858 0 3.37-1.514 3.37-3.372 0-1.848-1.512-3.37-3.37-3.37s-3.37 1.513-3.37 3.37c0 1.86 1.512 3.372 3.37 3.372z"/></defs></svg>