<svg xmlns="http://www.w3.org/2000/svg" width="64" height="25" viewBox="0 0 64 25">
    <g fill="none" fill-rule="evenodd">
        <rect width="64" height="25" fill="#00C300" rx="4"/>
        <text fill="#FFF" font-family="MicrosoftJhengHeiUIBold, Microsoft JhengHei UI" font-size="14" font-weight="bold" letter-spacing="-.263">
            <tspan x="30" y="18">分享 </tspan>
        </text>
        <path fill="#FFF" fill-rule="nonzero" d="M18.91 11.097c.233 0 .42.187.42.414a.418.418 0 0 1-.42.414h-1.17v.738h1.17c.233 0 .42.186.42.414a.417.417 0 0 1-.42.412h-1.59a.417.417 0 0 1-.419-.412V9.946c0-.227.188-.414.42-.414h1.591c.23 0 .418.187.418.414a.416.416 0 0 1-.42.413h-1.17v.738h1.17zm-2.57 1.98a.414.414 0 0 1-.42.411c-.141 0-.261-.059-.34-.164l-1.63-2.177v1.93a.417.417 0 0 1-.42.412.416.416 0 0 1-.417-.412V9.946c0-.178.115-.335.286-.39a.393.393 0 0 1 .13-.022c.13 0 .25.068.33.166l1.641 2.186v-1.94c0-.227.188-.414.42-.414.23 0 .42.187.42.414v3.13zm-3.827 0a.418.418 0 0 1-.421.412.417.417 0 0 1-.418-.412V9.946c0-.227.188-.414.42-.414.23 0 .419.187.419.414v3.13zm-1.644.412H9.278a.42.42 0 0 1-.42-.412V9.946a.42.42 0 0 1 .42-.414c.232 0 .42.187.42.414v2.717h1.17c.233 0 .42.186.42.414a.418.418 0 0 1-.42.412zM22 11.393C22 7.87 18.41 5 14 5s-8 2.869-8 6.393c0 3.158 2.847 5.803 6.69 6.306.26.054.615.17.705.387.08.198.053.503.026.709l-.11.67c-.03.197-.16.777.7.422.86-.353 4.61-2.676 6.29-4.577C21.451 14.07 22 12.8 22 11.393z"/>
    </g>
</svg>
