<svg id="圖層_1" data-name="圖層 1" xmlns="http://www.w3.org/2000/svg" xmlns:xlink="http://www.w3.org/1999/xlink" viewBox="0 0 62 62"><defs><style>.cls-1{fill:#495b73;}.cls-2{filter:url(#a);}.cls-3{fill:#fff;}</style><filter id="a" x="-7" y="-6.9" width="114.6" height="119.4" name="a"><feOffset result="shadowOffsetOuter1" dy="1" in="SourceAlpha"/><feGaussianBlur result="shadowBlurOuter1" stdDeviation="1" in="shadowOffsetOuter1"/></filter></defs><title>工作區域 1</title><circle class="cls-1" cx="31" cy="31" r="31"/><g class="cls-2"><path id="b" d="M11.48,43.48a.87.87,0,0,1,.58.66,8,8,0,0,0,15.54-.93,1.1,1.1,0,0,0,0-.18c-.2-1.07.44-1.6,1.23-2.15,2.63-1.8,5.2-3.68,7.82-5.5A2.36,2.36,0,0,1,37.85,35,10.52,10.52,0,1,0,27,22.89a1,1,0,0,0,0,.24,4.47,4.47,0,0,1-1.2,3.12c-1.77,2.48-3.5,5-5.22,7.52a1,1,0,0,1-.92.48,8,8,0,0,0-3.95,1.1,1,1,0,0,1-.74.09Q7.69,32.52.48,29.54l-.36-.22C0,30.27,0,31,0,31.74a25.67,25.67,0,0,0,1.22,7.6,6.21,6.21,0,0,1,.63.19C5.06,40.85,8.27,42.18,11.48,43.48ZM37,18A6.88,6.88,0,0,1,42,20.05,7,7,0,1,1,30,25a7,7,0,0,1,7-7ZM17.32,46.21a4.33,4.33,0,0,0,4.24-.54A3.94,3.94,0,0,0,23.22,42a4,4,0,0,0-2.44-3.22c-1-.44-2-.8-3-1.19l-.55-.24a5.85,5.85,0,0,1,7.29,2.93,5.23,5.23,0,0,1,.07,4.26,5.64,5.64,0,0,1-3.18,3A5.84,5.84,0,0,1,14,44.94C15.14,45.38,16.22,45.81,17.32,46.21Z"/></g><path class="cls-3" d="M11.48,43.48a.87.87,0,0,1,.58.66,8,8,0,0,0,15.54-.93,1.1,1.1,0,0,0,0-.18c-.2-1.07.44-1.6,1.23-2.15,2.63-1.8,5.2-3.68,7.82-5.5A2.36,2.36,0,0,1,37.85,35,10.52,10.52,0,1,0,27,22.89a1,1,0,0,0,0,.24,4.47,4.47,0,0,1-1.2,3.12c-1.77,2.48-3.5,5-5.22,7.52a1,1,0,0,1-.92.48,8,8,0,0,0-3.95,1.1,1,1,0,0,1-.74.09Q7.69,32.52.48,29.54l-.36-.22C0,30.27,0,31,0,31.74a25.67,25.67,0,0,0,1.22,7.6,6.21,6.21,0,0,1,.63.19C5.06,40.85,8.27,42.18,11.48,43.48ZM37,18A6.88,6.88,0,0,1,42,20.05,7,7,0,1,1,30,25a7,7,0,0,1,7-7ZM17.32,46.21a4.33,4.33,0,0,0,4.24-.54A3.94,3.94,0,0,0,23.22,42a4,4,0,0,0-2.44-3.22c-1-.44-2-.8-3-1.19l-.55-.24a5.85,5.85,0,0,1,7.29,2.93,5.23,5.23,0,0,1,.07,4.26,5.64,5.64,0,0,1-3.18,3A5.84,5.84,0,0,1,14,44.94C15.14,45.38,16.22,45.81,17.32,46.21Z"/><path class="cls-3" d="M36.92,30a5,5,0,0,0,0-10,5,5,0,1,0,0,10Z"/></svg>