<svg xmlns="http://www.w3.org/2000/svg" xmlns:xlink="http://www.w3.org/1999/xlink" width="62" height="62" viewBox="0 0 62 62">
    <defs>
        <filter id="a" width="150%" height="141.9%" x="-25%" y="-21%" filterUnits="objectBoundingBox">
            <feOffset dy="1" in="SourceAlpha" result="shadowOffsetOuter1"/>
            <feGaussianBlur in="shadowOffsetOuter1" result="shadowBlurOuter1" stdDeviation="1"/>
            <feColorMatrix in="shadowBlurOuter1" result="shadowMatrixOuter1" values="0 0 0 0 0 0 0 0 0 0 0 0 0 0 0 0 0 0 0.3 0"/>
            <feMerge>
                <feMergeNode in="shadowMatrixOuter1"/>
                <feMergeNode in="SourceGraphic"/>
            </feMerge>
        </filter>
        <path id="c" d="M28.742 7H1.252C.56 7 0 7.583 0 8.3v3.4c0 .717.56 1.3 1.252 1.3h27.496C29.44 13 30 12.417 30 11.7V8.3c-.006-.717-.567-1.3-1.258-1.3z"/>
        <filter id="b" width="113.3%" height="166.7%" x="-6.7%" y="-16.7%" filterUnits="objectBoundingBox">
            <feOffset dy="1" in="SourceAlpha" result="shadowOffsetOuter1"/>
            <feGaussianBlur in="shadowOffsetOuter1" result="shadowBlurOuter1" stdDeviation=".5"/>
            <feColorMatrix in="shadowBlurOuter1" values="0 0 0 0 0 0 0 0 0 0 0 0 0 0 0 0 0 0 0.2 0"/>
        </filter>
    </defs>
    <g fill="none" fill-rule="evenodd">
        <circle cx="31" cy="31" r="31" fill="#5CB2EC"/>
        <g fill-rule="nonzero" filter="url(#a)" transform="translate(16 15)">
            <path fill="#FFF8E0" d="M2 13v16.692C2 30.414 2.56 31 3.251 31H26.75c.69 0 1.251-.586 1.251-1.308V13H2z"/>
            <path fill="#FF756D" d="M23.04.824c-1.232-1.063-3.186-1.102-4.36-.09-.818.698-2.901 3.324-3.68 5.216-.779-1.892-2.862-4.518-3.68-5.217-1.174-1.011-3.128-.972-4.36.091-1.234 1.063-1.286 2.745-.111 3.757C8.01 5.575 13.657 8.763 15 7.83c1.343.932 6.99-2.256 8.151-3.25 1.175-1.012 1.123-2.694-.11-3.757zM8.206 3.53c-.308-.307-.265-.86.103-1.223.265-.264.555-.307.705-.307.145 0 .35.037.52.203C10.13 2.805 11.281 4.568 12 6c-1.424-.719-3.192-1.868-3.795-2.47zm13.592 0C21.199 4.132 19.43 5.281 18 6c.724-1.425 1.871-3.195 2.469-3.797A.73.73 0 0 1 20.988 2c.15 0 .44.037.706.307.362.363.41.916.103 1.223z"/>
            <use fill="#000" filter="url(#b)" xlink:href="#c"/>
            <use fill="#FFD273" xlink:href="#c"/>
            <path fill="#FF756D" d="M12 7h6v24h-6z"/>
        </g>
    </g>
</svg>
