<svg xmlns="http://www.w3.org/2000/svg" xmlns:xlink="http://www.w3.org/1999/xlink" width="62" height="62" viewBox="0 0 62 62">
    <defs>
        <path id="b" d="M33.646 25.124v-3.188c0-.479.02-.85.062-1.112a2.26 2.26 0 0 1 .282-.774c.146-.255.382-.43.708-.528.327-.097.76-.146 1.303-.146h2.958V13h-4.73c-2.736 0-4.701.7-5.895 2.099-1.195 1.4-1.792 3.461-1.792 6.185v3.84H23V31.5h3.542V50h7.104V31.5h4.729L39 25.124h-5.354z"/>
        <filter id="a" width="143.8%" height="118.9%" x="-21.9%" y="-6.8%" filterUnits="objectBoundingBox">
            <feOffset dy="1" in="SourceAlpha" result="shadowOffsetOuter1"/>
            <feGaussianBlur in="shadowOffsetOuter1" result="shadowBlurOuter1" stdDeviation="1"/>
            <feColorMatrix in="shadowBlurOuter1" values="0 0 0 0 0 0 0 0 0 0 0 0 0 0 0 0 0 0 0.3 0"/>
        </filter>
    </defs>
    <g fill="none" fill-rule="evenodd">
        <circle cx="31" cy="31" r="31" fill="#506798"/>
        <g fill-rule="nonzero">
            <use fill="#000" filter="url(#a)" xlink:href="#b"/>
            <use fill="#FFF" xlink:href="#b"/>
        </g>
    </g>
</svg>
