<svg xmlns="http://www.w3.org/2000/svg" xmlns:xlink="http://www.w3.org/1999/xlink" width="64" height="62" viewBox="0 0 64 62">
    <defs>
        <path id="b" d="M11.607 43.484a.878.878 0 0 1 .581.655c1.045 3.754 4.357 6.078 8.315 5.845 3.586-.208 6.653-3.087 7.22-6.777a.564.564 0 0 0 .019-.177c-.197-1.074.44-1.605 1.237-2.147 2.626-1.803 5.199-3.683 7.813-5.502a2.344 2.344 0 0 1 1.185-.383c5.73-.224 10.3-5.068 10.143-10.778-.145-5.25-4.258-9.673-9.443-10.167-5.717-.544-10.583 3.166-11.59 8.835a.889.889 0 0 0-.036.239c.13 1.248-.52 2.17-1.197 3.12-1.77 2.487-3.498 5.01-5.223 7.525-.237.358-.493.477-.915.477-1.412 0-2.718.406-3.949 1.1-.205.12-.54.173-.747.09-4.81-1.953-9.614-3.92-14.412-5.902a10.092 10.092 0 0 1-.368-.218c-.08.951-.115 1.686-.116 2.416 0 2.61.43 4.954 1.224 7.601.21.068.492.138.624.19 3.208 1.323 6.417 2.652 9.635 3.958zM37.148 18a6.884 6.884 0 0 1 4.934 2.048 7.081 7.081 0 0 1 2.042 4.994c-.014 3.839-3.17 6.97-7.013 6.958-3.844-.012-6.98-3.155-6.987-6.996-.013-3.874 3.135-7.01 7.018-7.004h.006zM17.44 46.212c1.515.555 2.954.384 4.24-.546 1.194-.85 1.828-2.236 1.668-3.646-.16-1.411-1.09-2.637-2.445-3.225-.983-.437-2.004-.795-3.006-1.19-.175-.07-.35-.146-.552-.233 2.269-.96 5.909-.087 7.292 2.925a5.228 5.228 0 0 1 .063 4.266c-.587 1.371-1.732 2.457-3.174 3.008-3.345 1.295-6.529-.563-7.402-2.635 1.14.44 2.22.876 3.316 1.276z"/>
        <filter id="a" width="114.6%" height="119.4%" x="-7%" y="-6.9%" filterUnits="objectBoundingBox">
            <feOffset dy="1" in="SourceAlpha" result="shadowOffsetOuter1"/>
            <feGaussianBlur in="shadowOffsetOuter1" result="shadowBlurOuter1" stdDeviation="1"/>
            <feColorMatrix in="shadowBlurOuter1" values="0 0 0 0 0 0 0 0 0 0 0 0 0 0 0 0 0 0 0.3 0"/>
        </filter>
    </defs>
    <g fill="none" fill-rule="evenodd" transform="translate(1.876)">
        <circle cx="31.124" cy="31" r="31" fill="#495B73"/>
        <g fill-rule="nonzero">
            <use fill="#000" filter="url(#a)" xlink:href="#b"/>
            <use fill="#FFF" xlink:href="#b"/>
        </g>
        <path fill="#FFF" fill-rule="nonzero" d="M37.047 30c2.739-.003 4.956-2.245 4.953-5.006-.003-2.762-2.227-4.997-4.965-4.994C34.27 19.997 32 22.264 32 25.015c0 2.75 2.259 4.993 5.047 4.985z"/>
    </g>
</svg>
