<svg xmlns="http://www.w3.org/2000/svg" xmlns:xlink="http://www.w3.org/1999/xlink" width="62" height="62" viewBox="0 0 62 62">
    <defs>
        <path id="b" d="M42.962 28.955c.575 0 1.038.473 1.038 1.047 0 .572-.463 1.044-1.038 1.044h-2.89v1.866h2.89c.575 0 1.038.47 1.038 1.045 0 .57-.463 1.043-1.038 1.043h-3.93A1.043 1.043 0 0 1 38 33.957v-7.912c0-.572.464-1.045 1.038-1.045h3.93c.57 0 1.032.473 1.032 1.045 0 .579-.463 1.045-1.038 1.045h-2.89v1.865h2.89zM37 33.957a1.043 1.043 0 0 1-1.043 1.04 1.02 1.02 0 0 1-.843-.415l-4.037-5.5v4.875c0 .57-.46 1.043-1.043 1.043A1.042 1.042 0 0 1 29 33.957v-7.912a1.039 1.039 0 0 1 1.031-1.042c.322 0 .62.173.818.422l4.069 5.522v-4.902c0-.572.466-1.045 1.04-1.045.571 0 1.042.473 1.042 1.045v7.912zm-9 0c0 .57-.448 1.043-1.003 1.043-.549 0-.997-.473-.997-1.043v-7.912c0-.572.448-1.045 1.002-1.045.55 0 .998.473.998 1.045v7.912zM23.965 35h-3.928A1.047 1.047 0 0 1 19 33.957v-7.912c0-.572.47-1.045 1.037-1.045.573 0 1.037.473 1.037 1.045v6.867h2.89c.573 0 1.036.47 1.036 1.045 0 .57-.464 1.043-1.035 1.043zM51 29.344C51 20.884 42.25 14 31.5 14S12 20.885 12 29.344c0 7.578 6.939 13.927 16.307 15.133.635.13 1.5.406 1.72.93.194.473.127 1.206.06 1.7l-.266 1.607c-.073.474-.39 1.868 1.705 1.016 2.098-.85 11.238-6.423 15.333-10.986C49.661 35.769 51 32.72 51 29.344z"/>
        <filter id="a" width="117.9%" height="119.4%" x="-9%" y="-6.9%" filterUnits="objectBoundingBox">
            <feOffset dy="1" in="SourceAlpha" result="shadowOffsetOuter1"/>
            <feGaussianBlur in="shadowOffsetOuter1" result="shadowBlurOuter1" stdDeviation="1"/>
            <feColorMatrix in="shadowBlurOuter1" values="0 0 0 0 0 0 0 0 0 0 0 0 0 0 0 0 0 0 0.3 0"/>
        </filter>
    </defs>
    <g fill="none" fill-rule="evenodd">
        <circle cx="31" cy="31" r="31" fill="#4CC34C"/>
        <g fill-rule="nonzero">
            <use fill="#000" filter="url(#a)" xlink:href="#b"/>
            <use fill="#FFF" xlink:href="#b"/>
        </g>
    </g>
</svg>
