<svg xmlns="http://www.w3.org/2000/svg" xmlns:xlink="http://www.w3.org/1999/xlink" width="62" height="62" viewBox="0 0 62 62">
    <defs>
        <path id="b" d="M40.508 30.394L23.857 1.868c-1.42-2.49-5.292-2.49-6.712 0L.493 30.394C-.927 32.886.881 36 3.85 36h33.174c3.098-.125 4.905-3.114 3.485-5.606z"/>
        <filter id="a" width="117.1%" height="119.4%" x="-8.5%" y="-6.9%" filterUnits="objectBoundingBox">
            <feOffset dy="1" in="SourceAlpha" result="shadowOffsetOuter1"/>
            <feGaussianBlur in="shadowOffsetOuter1" result="shadowBlurOuter1" stdDeviation="1"/>
            <feColorMatrix in="shadowBlurOuter1" values="0 0 0 0 0 0 0 0 0 0 0 0 0 0 0 0 0 0 0.3 0"/>
        </filter>
    </defs>
    <g fill="none" fill-rule="evenodd">
        <circle cx="31" cy="31" r="31" fill="#FEBD78"/>
        <g fill-rule="nonzero">
            <g transform="translate(11 10)">
                <use fill="#000" filter="url(#a)" xlink:href="#b"/>
                <use fill="#FC7966" xlink:href="#b"/>
            </g>
            <path fill="#FFF" d="M31.5 14L48 42H15z"/>
            <g fill="#5A5A5A" transform="translate(29 24)">
                <path d="M.009 3l.945 6.625c.118.75.709 1.375 1.535 1.375.71 0 1.418-.625 1.536-1.375L4.97 3c.236-1.625-.945-3-2.48-3C.953 0-.11 1.375.008 3z"/>
                <circle cx="2.5" cy="13.5" r="1.5"/>
            </g>
        </g>
    </g>
</svg>
