<svg xmlns="http://www.w3.org/2000/svg" xmlns:xlink="http://www.w3.org/1999/xlink" width="62" height="62" viewBox="0 0 62 62">
    <defs>
        <path id="b" d="M28.896 20.106L29 10.29c.013-1.27-.985-2.303-2.213-2.289l-9.49.107a3.09 3.09 0 0 0-2.187.952L.613 24.055a2.22 2.22 0 0 0 0 3.064l9.906 10.246a2.045 2.045 0 0 0 2.961 0L27.976 22.37c.581-.6.912-1.413.92-2.263zm-4.386-7.462a1.651 1.651 0 0 1 0-2.279 1.521 1.521 0 0 1 2.204 0c.608.63.608 1.65 0 2.28-.609.629-1.595.629-2.204 0z"/>
        <filter id="a" width="124.1%" height="123.3%" x="-12.1%" y="-8.3%" filterUnits="objectBoundingBox">
            <feOffset dy="1" in="SourceAlpha" result="shadowOffsetOuter1"/>
            <feGaussianBlur in="shadowOffsetOuter1" result="shadowBlurOuter1" stdDeviation="1"/>
            <feColorMatrix in="shadowBlurOuter1" values="0 0 0 0 0 0 0 0 0 0 0 0 0 0 0 0 0 0 0.3 0"/>
        </filter>
    </defs>
    <g fill="none" fill-rule="evenodd">
        <circle cx="31" cy="31" r="31" fill="#FFE082"/>
        <g fill-rule="nonzero">
            <g transform="translate(13 11)">
                <use fill="#000" filter="url(#a)" xlink:href="#b"/>
                <use fill="#FD6161" xlink:href="#b"/>
            </g>
            <path fill="#606060" d="M40.103 23c-.02 0-.04 0-.059-.002a.975.975 0 0 1-.64-.301c-.164-.173-.28-.413-.344-.715-.235-1.108.229-3.215 1.181-5.368 1.071-2.421 2.497-4.279 3.912-5.095.597-.345 1.199-.519 1.79-.519.951 0 1.863.452 2.712 1.344 1.68 1.765 1.483 3.415 1.02 4.488-.85 1.978-3.195 3.532-5.012 4.487C42.9 22.246 40.855 23 40.103 23zm5.824-10.901c-.69 0-1.387.335-2.13 1.023-1.157 1.072-2.301 2.968-3.062 5.073-.73 2.016-.776 3.296-.63 3.664l.02.05.052-.005c.451-.046 2.174-.58 4.11-1.61 2.348-1.249 3.934-2.662 4.468-3.978.444-1.095.17-2.142-.836-3.2-.642-.675-1.313-1.017-1.992-1.017z"/>
            <path fill="#FFF" d="M34.793 31.786a.69.69 0 0 1-.273.179l-13.514 4.672c-.249.103-.547 0-.759-.216-.348-.358-.298-.894-.037-1.162a.825.825 0 0 1 .261-.166l13.55-4.711c.262-.09.523 0 .71.191.286.294.398.868.062 1.213zM24.03 27.611l1.804-1.851c1.17-1.2 2.377-.856 3.385.179.995 1.02 1.331 2.26.162 3.46l-1.805 1.85c-1.17 1.2-2.376.856-3.372-.165-1.008-1.034-1.344-2.273-.174-3.473zm1.493 9.984l1.804-1.851c1.17-1.2 2.377-.856 3.385.179.995 1.02 1.331 2.26.162 3.46l-1.805 1.85c-1.182 1.214-2.376.856-3.372-.165-1.007-1.034-1.356-2.26-.174-3.473zm2.8-9.282c.46-.472.398-.97-.037-1.417-.436-.447-.909-.498-1.369-.025l-1.804 1.85c-.46.473-.411.958.025 1.405.435.447.92.51 1.38.038l1.805-1.85zm1.493 9.984c.46-.472.398-.97-.037-1.417-.436-.447-.908-.498-1.369-.025l-1.804 1.85c-.46.473-.41.958.025 1.405.435.447.92.51 1.38.038l1.805-1.85z"/>
            <path fill="#FD6161" d="M40.643 20c-.323.882-.477 1.453-.517 1.91.019.33.086.713 0 1.017-.087.304.126.555-.111.787l-.015.013c.806.815 1.983-.453 1.983-.453L42 21.791c.01-.845-.566-1.562-1.357-1.791z"/>
        </g>
    </g>
</svg>
