<svg xmlns="http://www.w3.org/2000/svg" xmlns:xlink="http://www.w3.org/1999/xlink" width="62" height="62" viewBox="0 0 62 62">
    <defs>
        <path id="b" d="M30.115 41.82l-7.462 3.68a2 2 0 0 1-2.863-2.081l1.193-8.234a2 2 0 0 0-.547-1.683l-5.805-5.96a2 2 0 0 1 1.094-3.366l8.2-1.41a2 2 0 0 0 1.43-1.04l3.875-7.362a2 2 0 0 1 3.54 0l3.874 7.363a2 2 0 0 0 1.431 1.04l8.2 1.409a2 2 0 0 1 1.094 3.366l-5.805 5.96a2 2 0 0 0-.547 1.683l1.193 8.234a2 2 0 0 1-2.863 2.08l-7.462-3.68a2 2 0 0 0-1.77 0z"/>
        <filter id="a" width="102.2%" height="98.5%" x="-1.1%" y="-.5%" filterUnits="objectBoundingBox">
            <feOffset dy="1" in="SourceAlpha" result="shadowOffsetOuter1"/>
            <feGaussianBlur in="shadowOffsetOuter1" result="shadowBlurOuter1" stdDeviation="1"/>
            <feColorMatrix in="shadowBlurOuter1" values="0 0 0 0 0 0 0 0 0 0 0 0 0 0 0 0 0 0 0.29 0"/>
        </filter>
    </defs>
    <g fill="none" fill-rule="evenodd">
        <circle cx="31" cy="31" r="31" fill="#FF7D73"/>
        <use fill="#000" filter="url(#a)" xlink:href="#b"/>
        <use fill="#FFF78F" xlink:href="#b"/>
        <path fill="#606060" fill-rule="nonzero" d="M28.22 33.31l.56-.828c1.692 1.144 3.11 1.144 4.393.036l.654.757c-1.644 1.42-3.559 1.42-5.607.035z"/>
        <circle cx="28.5" cy="29.5" r="1.5" fill="#606060"/>
        <circle cx="33.5" cy="29.5" r="1.5" fill="#606060"/>
    </g>
</svg>
